<svg width="20" height="19" viewBox="0 0 20 19" fill="none" xmlns="http://www.w3.org/2000/svg">
<path d="M1.00016 3.50012C1.00016 3.50012 2.35018 1.50011 5.50018 1.50007C8.65018 1.50003 10.0002 3.50001 10.0002 3.50001L9.99999 17.5C9.99999 17.5 8.65 16.5 5.5 16.5001C2.35 16.5001 0.999991 17.5001 0.999991 17.5001L1.00016 3.50012ZM10.0002 3.50001C10.0002 3.50001 11.3502 1.5 14.5002 1.49996C17.6502 1.49992 19.0002 3.4999 19.0002 3.4999L19 17.4999C19 17.4999 17.65 16.4999 14.5 16.5C11.35 16.5 9.99999 17.5 9.99999 17.5L10.0002 3.50001Z" stroke="black" stroke-width="2" stroke-linecap="round" stroke-linejoin="round"/>
</svg>
