<svg width="16" height="16" viewBox="0 0 16 16" fill="none" xmlns="http://www.w3.org/2000/svg">
<path d="M6.22222 8.88889H0.888889C0.653141 8.88889 0.427048 8.98254 0.260349 9.14924C0.0936505 9.31594 0 9.54203 0 9.77778V15.1111C0 15.3469 0.0936505 15.573 0.260349 15.7397C0.427048 15.9064 0.653141 16 0.888889 16H6.22222C6.45797 16 6.68406 15.9064 6.85076 15.7397C7.01746 15.573 7.11111 15.3469 7.11111 15.1111V9.77778C7.11111 9.54203 7.01746 9.31594 6.85076 9.14924C6.68406 8.98254 6.45797 8.88889 6.22222 8.88889ZM5.33333 14.2222H1.77778V10.6667H5.33333V14.2222ZM15.1111 0H9.77778C9.54203 0 9.31594 0.0936505 9.14924 0.260349C8.98254 0.427048 8.88889 0.653141 8.88889 0.888889V6.22222C8.88889 6.45797 8.98254 6.68406 9.14924 6.85076C9.31594 7.01746 9.54203 7.11111 9.77778 7.11111H15.1111C15.3469 7.11111 15.573 7.01746 15.7397 6.85076C15.9064 6.68406 16 6.45797 16 6.22222V0.888889C16 0.653141 15.9064 0.427048 15.7397 0.260349C15.573 0.0936505 15.3469 0 15.1111 0V0ZM14.2222 5.33333H10.6667V1.77778H14.2222V5.33333ZM15.1111 11.5556H13.3333V9.77778C13.3333 9.54203 13.2397 9.31594 13.073 9.14924C12.9063 8.98254 12.6802 8.88889 12.4444 8.88889C12.2087 8.88889 11.9826 8.98254 11.8159 9.14924C11.6492 9.31594 11.5556 9.54203 11.5556 9.77778V11.5556H9.77778C9.54203 11.5556 9.31594 11.6492 9.14924 11.8159C8.98254 11.9826 8.88889 12.2087 8.88889 12.4444C8.88889 12.6802 8.98254 12.9063 9.14924 13.073C9.31594 13.2397 9.54203 13.3333 9.77778 13.3333H11.5556V15.1111C11.5556 15.3469 11.6492 15.573 11.8159 15.7397C11.9826 15.9064 12.2087 16 12.4444 16C12.6802 16 12.9063 15.9064 13.073 15.7397C13.2397 15.573 13.3333 15.3469 13.3333 15.1111V13.3333H15.1111C15.3469 13.3333 15.573 13.2397 15.7397 13.073C15.9064 12.9063 16 12.6802 16 12.4444C16 12.2087 15.9064 11.9826 15.7397 11.8159C15.573 11.6492 15.3469 11.5556 15.1111 11.5556ZM6.22222 0H0.888889C0.653141 0 0.427048 0.0936505 0.260349 0.260349C0.0936505 0.427048 0 0.653141 0 0.888889V6.22222C0 6.45797 0.0936505 6.68406 0.260349 6.85076C0.427048 7.01746 0.653141 7.11111 0.888889 7.11111H6.22222C6.45797 7.11111 6.68406 7.01746 6.85076 6.85076C7.01746 6.68406 7.11111 6.45797 7.11111 6.22222V0.888889C7.11111 0.653141 7.01746 0.427048 6.85076 0.260349C6.68406 0.0936505 6.45797 0 6.22222 0V0ZM5.33333 5.33333H1.77778V1.77778H5.33333V5.33333Z" fill="#2339AA"/>
</svg>
