<svg width="219" height="281" viewBox="0 0 219 281" fill="none" xmlns="http://www.w3.org/2000/svg">
<path d="M109.499 14C112.522 14 115.536 14.1231 118.547 14.3734C121.557 14.6236 124.556 14.9969 127.535 15.4934C130.514 15.9899 133.469 16.6135 136.396 17.3522C139.327 18.0949 142.219 18.9568 145.075 19.9379C147.934 20.9189 150.746 22.0191 153.511 23.2345C156.279 24.4459 158.992 25.7725 161.645 27.2142C164.302 28.652 166.896 30.1971 169.426 31.8493C171.952 33.5056 174.41 35.2611 176.793 37.116C179.176 38.9748 181.48 40.9249 183.7 42.9704C185.921 45.0199 188.057 47.1567 190.099 49.3769C192.144 51.6012 194.095 53.9088 195.949 56.2919C197.804 58.6789 199.556 61.1375 201.208 63.6675C202.86 66.1976 204.401 68.7912 205.839 71.4483C207.273 74.1054 208.6 76.8182 209.811 79.5866C211.022 82.3549 212.115 85.1669 213.096 88.0267C214.073 90.8824 214.935 93.7778 215.673 96.709L162.586 110.102C162.217 108.64 161.788 107.191 161.299 105.761C160.807 104.335 160.259 102.925 159.655 101.543C159.047 100.161 158.388 98.8022 157.669 97.4756C156.95 96.145 156.18 94.8463 155.354 93.5832C154.527 92.3162 153.654 91.0889 152.724 89.8974C151.799 88.7019 150.822 87.55 149.801 86.4379C148.776 85.3258 147.712 84.2574 146.6 83.2366C145.488 82.2119 144.34 81.2349 143.148 80.3094C141.957 79.38 140.725 78.5022 139.462 77.6761C138.199 76.85 136.901 76.0755 135.574 75.3566C134.243 74.6377 132.889 73.9744 131.507 73.3667C130.125 72.759 128.719 72.2109 127.289 71.7184C125.859 71.2299 124.413 70.7969 122.948 70.4276C121.486 70.0542 120.008 69.7444 118.519 69.4981C117.026 69.2479 115.528 69.0612 114.023 68.9341C112.518 68.811 111.012 68.7475 109.499 68.7475V14Z" fill="#788EFF"/>
<path d="M214.2 91.4345C214.78 93.329 215.308 95.2395 215.785 97.1618C216.261 99.0881 216.686 101.022 217.06 102.969C217.429 104.915 217.747 106.873 218.013 108.835C218.279 110.801 218.49 112.771 218.648 114.745C218.807 116.723 218.915 118.701 218.962 120.683C219.014 122.665 219.014 124.647 218.954 126.625C218.899 128.607 218.787 130.585 218.625 132.563C218.462 134.537 218.243 136.507 217.973 138.469C217.699 140.435 217.377 142.389 217 144.335C216.623 146.281 216.194 148.216 215.709 150.138C215.229 152.06 214.696 153.967 214.109 155.861C213.525 157.756 212.885 159.631 212.198 161.489C211.511 163.348 210.772 165.187 209.986 167.006C209.2 168.825 208.361 170.621 207.476 172.396C206.59 174.167 205.661 175.915 204.68 177.639C203.699 179.362 202.674 181.058 201.601 182.727C200.529 184.391 199.413 186.027 198.253 187.636C197.089 189.24 195.886 190.817 194.639 192.358C193.396 193.899 192.105 195.405 190.778 196.874C189.452 198.348 188.081 199.782 186.675 201.18C185.269 202.574 183.828 203.932 182.346 205.251C180.869 206.569 179.355 207.848 177.806 209.084C176.253 210.319 174.673 211.514 173.06 212.666C171.447 213.814 169.803 214.922 168.127 215.983C166.455 217.043 164.751 218.06 163.023 219.029C161.292 219.994 159.54 220.916 157.761 221.789C155.981 222.663 154.178 223.489 152.355 224.264C150.532 225.042 148.689 225.765 146.822 226.44C144.959 227.116 143.081 227.743 141.182 228.315C139.284 228.887 137.373 229.411 135.447 229.88C133.525 230.349 131.586 230.766 129.636 231.131C127.69 231.497 125.732 231.806 123.766 232.064C121.804 232.323 119.83 232.529 117.856 232.68C115.878 232.831 113.9 232.93 111.918 232.974C109.936 233.018 107.954 233.006 105.972 232.942C103.994 232.879 102.016 232.76 100.042 232.589C98.0643 232.418 96.0982 232.196 94.1362 231.914C92.1701 231.636 90.22 231.306 88.2738 230.921C86.3276 230.539 84.3973 230.102 82.4749 229.61C80.5566 229.121 78.6501 228.581 76.7595 227.989C74.8649 227.398 72.9942 226.754 71.1354 226.059C69.2806 225.364 67.4416 224.621 65.6265 223.827C63.8114 223.033 62.0161 222.187 60.2487 221.297C58.4773 220.407 56.7336 219.466 55.0138 218.481C53.294 217.492 51.6021 216.463 49.9379 215.383C48.2777 214.306 46.6452 213.182 45.0406 212.015C43.44 210.851 41.8711 209.64 40.334 208.388C38.7969 207.137 37.2956 205.843 35.83 204.508C34.3604 203.177 32.9346 201.803 31.5404 200.393C30.1503 198.979 28.7959 197.534 27.4813 196.048C26.1706 194.563 24.8996 193.045 23.6683 191.492C22.4371 189.939 21.2495 188.351 20.1056 186.734C18.9578 185.114 17.8576 183.465 16.805 181.789C15.7485 180.113 14.7397 178.405 13.7785 176.674C12.8173 174.942 11.8998 173.182 11.034 171.399C10.1681 169.62 9.34995 167.812 8.57941 165.985C7.80888 164.158 7.08999 162.315 6.42272 160.449C5.75546 158.582 5.13586 156.699 4.56789 154.801C4.00389 152.902 3.48755 150.988 3.02682 149.062C2.56212 147.131 2.15302 145.193 1.79556 143.243C1.4381 141.293 1.13227 139.339 0.882046 137.372C0.631823 135.406 0.433232 133.432 0.290246 131.454C0.147261 129.48 0.0559095 127.499 0.0201634 125.517C-0.0195542 123.535 0.000303858 121.557 0.0717969 119.575L54.7835 121.537C54.7517 122.526 54.7398 123.519 54.7596 124.508C54.7795 125.501 54.8232 126.49 54.8947 127.479C54.9662 128.468 55.0655 129.453 55.1926 130.434C55.3157 131.419 55.4706 132.396 55.6493 133.373C55.8281 134.346 56.0306 135.315 56.261 136.28C56.4953 137.241 56.7495 138.199 57.0355 139.148C57.3175 140.097 57.6273 141.038 57.9609 141.972C58.2946 142.905 58.656 143.831 59.0413 144.744C59.4226 145.658 59.8316 146.559 60.2685 147.449C60.7015 148.343 61.1582 149.22 61.6388 150.086C62.1194 150.952 62.6238 151.806 63.1521 152.644C63.6803 153.482 64.2284 154.308 64.8004 155.115C65.3763 155.925 65.9681 156.719 66.5837 157.494C67.1994 158.272 67.8348 159.031 68.4902 159.773C69.1495 160.516 69.8247 161.239 70.5198 161.946C71.2149 162.653 71.9298 163.336 72.6646 164.003C73.3994 164.671 74.15 165.318 74.9166 165.942C75.6831 166.569 76.4696 167.173 77.2719 167.757C78.0702 168.341 78.8884 168.901 79.7185 169.441C80.5526 169.981 81.3986 170.497 82.2565 170.99C83.1184 171.482 83.9882 171.951 84.8739 172.396C85.7596 172.845 86.6573 173.266 87.5628 173.663C88.4724 174.06 89.3899 174.429 90.3193 174.779C91.2447 175.125 92.182 175.446 93.1273 175.744C94.0766 176.042 95.0259 176.312 95.987 176.554C96.9482 176.801 97.9134 177.019 98.8865 177.21C99.8595 177.404 100.837 177.567 101.818 177.706C102.799 177.845 103.784 177.96 104.769 178.044C105.758 178.131 106.747 178.187 107.736 178.219C108.729 178.254 109.718 178.258 110.711 178.234C111.7 178.215 112.688 178.163 113.677 178.088C114.666 178.012 115.651 177.913 116.633 177.782C117.618 177.655 118.595 177.496 119.568 177.317C120.545 177.134 121.51 176.924 122.475 176.689C123.436 176.455 124.393 176.193 125.343 175.907C126.292 175.621 127.229 175.307 128.163 174.97C129.092 174.632 130.018 174.271 130.927 173.881C131.841 173.492 132.742 173.083 133.632 172.646C134.522 172.209 135.395 171.749 136.261 171.264C137.127 170.779 137.977 170.271 138.815 169.739C139.649 169.211 140.471 168.658 141.282 168.083C142.088 167.507 142.878 166.911 143.653 166.291C144.427 165.672 145.186 165.036 145.925 164.377C146.663 163.718 147.386 163.038 148.089 162.339C148.792 161.64 149.475 160.921 150.139 160.187C150.802 159.452 151.445 158.697 152.069 157.927C152.693 157.156 153.296 156.37 153.876 155.567C154.456 154.765 155.016 153.947 155.552 153.113C156.088 152.279 156.601 151.429 157.089 150.571C157.578 149.709 158.047 148.835 158.487 147.945C158.932 147.06 159.349 146.162 159.743 145.253C160.136 144.343 160.505 143.426 160.851 142.496C161.192 141.563 161.51 140.625 161.804 139.68C162.098 138.735 162.364 137.778 162.606 136.816C162.848 135.855 163.063 134.89 163.25 133.917C163.44 132.944 163.599 131.967 163.734 130.986C163.873 130.001 163.98 129.02 164.064 128.031C164.143 127.042 164.199 126.053 164.227 125.064C164.255 124.071 164.258 123.082 164.231 122.089C164.207 121.1 164.155 120.111 164.076 119.122C163.996 118.133 163.889 117.148 163.758 116.167C163.623 115.186 163.464 114.209 163.277 113.236C163.095 112.263 162.88 111.294 162.642 110.332C162.404 109.367 162.142 108.414 161.852 107.469L214.2 91.4345Z" fill="#3455FF"/>
<path d="M0.0122642 125.048C-0.0155388 123.241 0.00432055 121.434 0.0678695 119.626C0.131418 117.819 0.242629 116.012 0.39753 114.213C0.548459 112.41 0.747049 110.614 0.989329 108.823C1.23161 107.028 1.51758 105.244 1.85121 103.469C2.18087 101.69 2.55422 99.9222 2.97523 98.1627C3.39227 96.4032 3.853 94.6556 4.35742 92.9199C4.86581 91.1842 5.40995 89.4605 6.00175 87.7486C6.59355 86.0407 7.22507 84.3488 7.90028 82.6687C8.57151 80.9926 9.28644 79.3324 10.0451 77.688C10.7997 76.0477 11.598 74.4232 12.4361 72.8226C13.2702 71.2179 14.1479 69.6372 15.0614 68.0802C15.9789 66.5193 16.9322 64.9822 17.9212 63.4689C18.9141 61.9596 19.9428 60.4702 21.0072 59.0086C22.0717 57.547 23.1719 56.1131 24.3078 54.7071C25.4438 53.3011 26.6115 51.9229 27.8149 50.5725C29.0224 49.226 30.2576 47.9074 31.5286 46.6205C32.7956 45.3336 34.0983 44.0785 35.4289 42.8552C36.7594 41.6319 38.1218 40.4404 39.5119 39.2846C40.902 38.1288 42.32 37.0087 43.7657 35.9244C45.2115 34.8361 46.685 33.7876 48.1824 32.7748C49.6797 31.7659 51.2009 30.7889 52.746 29.8515C54.295 28.9142 55.8638 28.0165 57.4526 27.1586C59.0453 26.2967 60.6538 25.4785 62.2863 24.7001C63.9187 23.9176 65.567 23.1789 67.2351 22.4838C68.9033 21.7848 70.5873 21.1294 72.2873 20.5138C73.9872 19.8981 75.703 19.3262 77.4308 18.798C79.1585 18.2697 80.8982 17.7812 82.6537 17.3403C84.4053 16.8955 86.1687 16.4983 87.9402 16.1408C89.7116 15.7833 91.4949 15.4735 93.2823 15.2035C95.0696 14.9373 96.8609 14.7149 98.6601 14.5362C100.459 14.3575 102.263 14.2224 104.07 14.1311C105.873 14.0437 107.68 14 109.491 14L109.495 68.7475C107.684 68.7475 105.881 68.8388 104.082 69.0176C102.278 69.1963 100.495 69.4664 98.7197 69.8199C96.9443 70.1773 95.1927 70.6182 93.465 71.1504C91.7333 71.6787 90.0333 72.2943 88.3652 72.9933C86.697 73.6924 85.0646 74.4709 83.4759 75.3288C81.8832 76.1907 80.3381 77.128 78.8368 78.1408C77.3394 79.1536 75.8937 80.2379 74.5035 81.3937C73.1134 82.5495 71.7829 83.7728 70.5119 85.0597C69.2409 86.3506 68.0374 87.697 66.9015 89.107C65.7656 90.513 64.7011 91.9746 63.7082 93.4879C62.7152 95.0012 61.8017 96.5581 60.9636 98.1627C60.1296 99.7673 59.371 101.408 58.6997 103.088C58.0245 104.764 57.4327 106.472 56.9283 108.211C56.4239 109.947 56.0068 111.707 55.6732 113.486C55.3435 115.261 55.1013 117.053 54.9464 118.856C54.7954 120.659 54.7319 122.466 54.7557 124.273L0.0122642 125.048Z" fill="#BBC6FF"/>
<path d="M111.896 255.469V264H110.285V255.469H111.896ZM115.336 259.154V260.426H111.475V259.154H115.336ZM115.787 255.469V256.74H111.475V255.469H115.787ZM118.16 258.955V264H116.613V257.66H118.078L118.16 258.955ZM120.088 257.619L120.064 259.061C119.979 259.045 119.881 259.033 119.771 259.025C119.666 259.018 119.566 259.014 119.473 259.014C119.234 259.014 119.025 259.047 118.846 259.113C118.666 259.176 118.516 259.268 118.395 259.389C118.277 259.51 118.188 259.658 118.125 259.834C118.062 260.006 118.027 260.201 118.02 260.42L117.686 260.379C117.686 259.977 117.727 259.604 117.809 259.26C117.891 258.916 118.01 258.615 118.166 258.357C118.322 258.1 118.518 257.9 118.752 257.76C118.99 257.615 119.264 257.543 119.572 257.543C119.658 257.543 119.75 257.551 119.848 257.566C119.949 257.578 120.029 257.596 120.088 257.619ZM120.498 260.895V260.771C120.498 260.307 120.564 259.879 120.697 259.488C120.83 259.094 121.023 258.752 121.277 258.463C121.531 258.174 121.842 257.949 122.209 257.789C122.576 257.625 122.994 257.543 123.463 257.543C123.939 257.543 124.361 257.625 124.729 257.789C125.1 257.949 125.412 258.174 125.666 258.463C125.92 258.752 126.113 259.094 126.246 259.488C126.379 259.879 126.445 260.307 126.445 260.771V260.895C126.445 261.355 126.379 261.783 126.246 262.178C126.113 262.568 125.92 262.91 125.666 263.203C125.412 263.492 125.102 263.717 124.734 263.877C124.367 264.037 123.947 264.117 123.475 264.117C123.006 264.117 122.586 264.037 122.215 263.877C121.844 263.717 121.531 263.492 121.277 263.203C121.023 262.91 120.83 262.568 120.697 262.178C120.564 261.783 120.498 261.355 120.498 260.895ZM122.045 260.771V260.895C122.045 261.172 122.072 261.432 122.127 261.674C122.182 261.916 122.266 262.129 122.379 262.312C122.492 262.496 122.639 262.641 122.818 262.746C123.002 262.848 123.221 262.898 123.475 262.898C123.725 262.898 123.939 262.848 124.119 262.746C124.299 262.641 124.445 262.496 124.559 262.312C124.676 262.129 124.762 261.916 124.816 261.674C124.871 261.432 124.898 261.172 124.898 260.895V260.771C124.898 260.498 124.871 260.242 124.816 260.004C124.762 259.762 124.676 259.549 124.559 259.365C124.445 259.178 124.297 259.031 124.113 258.926C123.934 258.816 123.717 258.762 123.463 258.762C123.213 258.762 122.998 258.816 122.818 258.926C122.639 259.031 122.492 259.178 122.379 259.365C122.266 259.549 122.182 259.762 122.127 260.004C122.072 260.242 122.045 260.498 122.045 260.771ZM129.088 259.014V264H127.541V257.66H128.994L129.088 259.014ZM128.842 260.602H128.385C128.389 260.141 128.451 259.723 128.572 259.348C128.693 258.973 128.863 258.65 129.082 258.381C129.305 258.111 129.568 257.904 129.873 257.76C130.178 257.615 130.518 257.543 130.893 257.543C131.197 257.543 131.473 257.586 131.719 257.672C131.965 257.758 132.176 257.895 132.352 258.082C132.531 258.27 132.668 258.516 132.762 258.82C132.859 259.121 132.908 259.492 132.908 259.934V264H131.35V259.922C131.35 259.633 131.307 259.404 131.221 259.236C131.139 259.068 131.018 258.949 130.857 258.879C130.701 258.809 130.508 258.773 130.277 258.773C130.039 258.773 129.83 258.822 129.65 258.92C129.475 259.014 129.326 259.145 129.205 259.312C129.088 259.48 128.998 259.674 128.936 259.893C128.873 260.111 128.842 260.348 128.842 260.602ZM137.273 257.66V258.773H133.641V257.66H137.273ZM134.613 256.102H136.166V262.172C136.166 262.359 136.191 262.504 136.242 262.605C136.293 262.707 136.369 262.775 136.471 262.811C136.572 262.846 136.693 262.863 136.834 262.863C136.936 262.863 137.029 262.857 137.115 262.846C137.201 262.834 137.273 262.822 137.332 262.811L137.338 263.971C137.209 264.014 137.062 264.049 136.898 264.076C136.738 264.104 136.557 264.117 136.354 264.117C136.006 264.117 135.701 264.059 135.439 263.941C135.178 263.82 134.975 263.627 134.83 263.361C134.686 263.092 134.613 262.736 134.613 262.295V256.102ZM141.152 264.117C140.672 264.117 140.24 264.039 139.857 263.883C139.475 263.727 139.148 263.51 138.879 263.232C138.613 262.951 138.408 262.625 138.264 262.254C138.123 261.879 138.053 261.477 138.053 261.047V260.812C138.053 260.324 138.123 259.881 138.264 259.482C138.404 259.08 138.604 258.734 138.861 258.445C139.119 258.156 139.428 257.934 139.787 257.777C140.146 257.621 140.543 257.543 140.977 257.543C141.426 257.543 141.822 257.619 142.166 257.771C142.51 257.92 142.797 258.131 143.027 258.404C143.258 258.678 143.432 259.006 143.549 259.389C143.666 259.768 143.725 260.188 143.725 260.648V261.299H138.756V260.232H142.201V260.115C142.193 259.869 142.146 259.645 142.061 259.441C141.975 259.234 141.842 259.07 141.662 258.949C141.482 258.824 141.25 258.762 140.965 258.762C140.734 258.762 140.533 258.812 140.361 258.914C140.193 259.012 140.053 259.152 139.939 259.336C139.83 259.516 139.748 259.73 139.693 259.98C139.639 260.23 139.611 260.508 139.611 260.812V261.047C139.611 261.312 139.646 261.559 139.717 261.785C139.791 262.012 139.898 262.209 140.039 262.377C140.184 262.541 140.355 262.67 140.555 262.764C140.758 262.854 140.988 262.898 141.246 262.898C141.57 262.898 141.863 262.836 142.125 262.711C142.391 262.582 142.621 262.393 142.816 262.143L143.596 262.951C143.463 263.146 143.283 263.334 143.057 263.514C142.834 263.693 142.564 263.84 142.248 263.953C141.932 264.062 141.566 264.117 141.152 264.117ZM146.279 259.014V264H144.732V257.66H146.186L146.279 259.014ZM146.033 260.602H145.576C145.58 260.141 145.643 259.723 145.764 259.348C145.885 258.973 146.055 258.65 146.273 258.381C146.496 258.111 146.76 257.904 147.064 257.76C147.369 257.615 147.709 257.543 148.084 257.543C148.389 257.543 148.664 257.586 148.91 257.672C149.156 257.758 149.367 257.895 149.543 258.082C149.723 258.27 149.859 258.516 149.953 258.82C150.051 259.121 150.1 259.492 150.1 259.934V264H148.541V259.922C148.541 259.633 148.498 259.404 148.412 259.236C148.33 259.068 148.209 258.949 148.049 258.879C147.893 258.809 147.699 258.773 147.469 258.773C147.23 258.773 147.021 258.822 146.842 258.92C146.666 259.014 146.518 259.145 146.396 259.312C146.279 259.48 146.189 259.674 146.127 259.893C146.064 260.111 146.033 260.348 146.033 260.602ZM155.268 262.652V255H156.826V264H155.42L155.268 262.652ZM151.195 260.906V260.783C151.195 260.299 151.25 259.859 151.359 259.465C151.473 259.066 151.637 258.725 151.852 258.439C152.066 258.154 152.326 257.934 152.631 257.777C152.939 257.621 153.289 257.543 153.68 257.543C154.059 257.543 154.389 257.619 154.67 257.771C154.955 257.924 155.197 258.141 155.396 258.422C155.6 258.703 155.762 259.037 155.883 259.424C156.004 259.807 156.092 260.229 156.146 260.689V261.023C156.092 261.473 156.004 261.885 155.883 262.26C155.762 262.635 155.6 262.963 155.396 263.244C155.197 263.521 154.955 263.736 154.67 263.889C154.385 264.041 154.051 264.117 153.668 264.117C153.281 264.117 152.934 264.037 152.625 263.877C152.32 263.717 152.061 263.492 151.846 263.203C151.635 262.914 151.473 262.574 151.359 262.184C151.25 261.793 151.195 261.367 151.195 260.906ZM152.748 260.783V260.906C152.748 261.18 152.771 261.436 152.818 261.674C152.865 261.912 152.941 262.123 153.047 262.307C153.152 262.486 153.287 262.627 153.451 262.729C153.619 262.83 153.822 262.881 154.061 262.881C154.365 262.881 154.615 262.814 154.811 262.682C155.01 262.545 155.164 262.359 155.273 262.125C155.383 261.887 155.453 261.619 155.484 261.322V260.402C155.469 260.168 155.428 259.951 155.361 259.752C155.299 259.553 155.209 259.381 155.092 259.236C154.979 259.092 154.838 258.979 154.67 258.896C154.502 258.814 154.303 258.773 154.072 258.773C153.834 258.773 153.631 258.826 153.463 258.932C153.295 259.033 153.158 259.176 153.053 259.359C152.947 259.543 152.869 259.756 152.818 259.998C152.771 260.24 152.748 260.502 152.748 260.783ZM124.365 274.074L123.129 273.775L123.604 269.469H128.297V270.752H124.887L124.664 272.744C124.785 272.67 124.961 272.596 125.191 272.521C125.426 272.443 125.689 272.404 125.982 272.404C126.389 272.404 126.752 272.471 127.072 272.604C127.393 272.732 127.664 272.92 127.887 273.166C128.113 273.412 128.283 273.713 128.396 274.068C128.514 274.42 128.572 274.818 128.572 275.264C128.572 275.654 128.514 276.021 128.396 276.365C128.283 276.705 128.109 277.008 127.875 277.273C127.641 277.535 127.346 277.742 126.99 277.895C126.635 278.043 126.217 278.117 125.736 278.117C125.373 278.117 125.023 278.064 124.688 277.959C124.355 277.85 124.057 277.691 123.791 277.484C123.525 277.273 123.312 277.016 123.152 276.711C122.996 276.406 122.91 276.057 122.895 275.662H124.424C124.451 275.924 124.521 276.146 124.635 276.33C124.748 276.514 124.896 276.654 125.08 276.752C125.268 276.85 125.484 276.898 125.73 276.898C125.953 276.898 126.145 276.857 126.305 276.775C126.469 276.689 126.604 276.57 126.709 276.418C126.814 276.266 126.893 276.086 126.943 275.879C126.994 275.672 127.02 275.445 127.02 275.199C127.02 274.961 126.99 274.744 126.932 274.549C126.873 274.35 126.783 274.178 126.662 274.033C126.541 273.889 126.389 273.777 126.205 273.699C126.025 273.621 125.814 273.582 125.572 273.582C125.248 273.582 124.998 273.631 124.822 273.729C124.65 273.826 124.498 273.941 124.365 274.074ZM131.221 274.074L129.984 273.775L130.459 269.469H135.152V270.752H131.742L131.52 272.744C131.641 272.67 131.816 272.596 132.047 272.521C132.281 272.443 132.545 272.404 132.838 272.404C133.244 272.404 133.607 272.471 133.928 272.604C134.248 272.732 134.52 272.92 134.742 273.166C134.969 273.412 135.139 273.713 135.252 274.068C135.369 274.42 135.428 274.818 135.428 275.264C135.428 275.654 135.369 276.021 135.252 276.365C135.139 276.705 134.965 277.008 134.73 277.273C134.496 277.535 134.201 277.742 133.846 277.895C133.49 278.043 133.072 278.117 132.592 278.117C132.229 278.117 131.879 278.064 131.543 277.959C131.211 277.85 130.912 277.691 130.646 277.484C130.381 277.273 130.168 277.016 130.008 276.711C129.852 276.406 129.766 276.057 129.75 275.662H131.279C131.307 275.924 131.377 276.146 131.49 276.33C131.604 276.514 131.752 276.654 131.936 276.752C132.123 276.85 132.34 276.898 132.586 276.898C132.809 276.898 133 276.857 133.16 276.775C133.324 276.689 133.459 276.57 133.564 276.418C133.67 276.266 133.748 276.086 133.799 275.879C133.85 275.672 133.875 275.445 133.875 275.199C133.875 274.961 133.846 274.744 133.787 274.549C133.729 274.35 133.639 274.178 133.518 274.033C133.396 273.889 133.244 273.777 133.061 273.699C132.881 273.621 132.67 273.582 132.428 273.582C132.104 273.582 131.854 273.631 131.678 273.729C131.506 273.826 131.354 273.941 131.221 274.074ZM136.5 271.561V271.109C136.5 270.785 136.57 270.49 136.711 270.225C136.852 269.959 137.057 269.746 137.326 269.586C137.6 269.426 137.932 269.346 138.322 269.346C138.721 269.346 139.055 269.426 139.324 269.586C139.598 269.746 139.803 269.959 139.939 270.225C140.08 270.49 140.15 270.785 140.15 271.109V271.561C140.15 271.877 140.08 272.168 139.939 272.434C139.803 272.699 139.6 272.912 139.33 273.072C139.061 273.232 138.729 273.312 138.334 273.312C137.939 273.312 137.605 273.232 137.332 273.072C137.059 272.912 136.852 272.699 136.711 272.434C136.57 272.168 136.5 271.877 136.5 271.561ZM137.549 271.109V271.561C137.549 271.709 137.576 271.85 137.631 271.982C137.689 272.111 137.777 272.217 137.895 272.299C138.012 272.381 138.158 272.422 138.334 272.422C138.51 272.422 138.652 272.381 138.762 272.299C138.875 272.217 138.959 272.111 139.014 271.982C139.072 271.85 139.102 271.709 139.102 271.561V271.109C139.102 270.957 139.072 270.814 139.014 270.682C138.959 270.549 138.873 270.441 138.756 270.359C138.643 270.277 138.498 270.236 138.322 270.236C138.15 270.236 138.006 270.277 137.889 270.359C137.775 270.441 137.689 270.549 137.631 270.682C137.576 270.814 137.549 270.957 137.549 271.109ZM140.596 276.359V275.908C140.596 275.588 140.666 275.295 140.807 275.029C140.951 274.764 141.16 274.551 141.434 274.391C141.707 274.23 142.037 274.15 142.424 274.15C142.826 274.15 143.162 274.23 143.432 274.391C143.701 274.551 143.904 274.764 144.041 275.029C144.182 275.295 144.252 275.588 144.252 275.908V276.359C144.252 276.68 144.182 276.973 144.041 277.238C143.904 277.504 143.701 277.717 143.432 277.877C143.166 278.037 142.836 278.117 142.441 278.117C142.047 278.117 141.711 278.037 141.434 277.877C141.16 277.717 140.951 277.504 140.807 277.238C140.666 276.973 140.596 276.68 140.596 276.359ZM141.65 275.908V276.359C141.65 276.512 141.682 276.654 141.744 276.787C141.807 276.916 141.896 277.021 142.014 277.104C142.135 277.186 142.275 277.227 142.436 277.227C142.631 277.227 142.785 277.186 142.898 277.104C143.012 277.021 143.092 276.916 143.139 276.787C143.186 276.654 143.209 276.512 143.209 276.359V275.908C143.209 275.756 143.18 275.615 143.121 275.486C143.062 275.354 142.975 275.246 142.857 275.164C142.744 275.082 142.6 275.041 142.424 275.041C142.252 275.041 142.107 275.082 141.99 275.164C141.877 275.246 141.791 275.354 141.732 275.486C141.678 275.615 141.65 275.756 141.65 275.908ZM142.811 270.688L138.645 277.355L137.877 276.928L142.043 270.26L142.811 270.688Z" fill="#2339AA"/>
<path d="M186.191 11.1934H187.803C187.76 11.7637 187.602 12.2695 187.328 12.7109C187.055 13.1484 186.674 13.4922 186.186 13.7422C185.697 13.9922 185.105 14.1172 184.41 14.1172C183.875 14.1172 183.393 14.0234 182.963 13.8359C182.537 13.6445 182.172 13.373 181.867 13.0215C181.566 12.666 181.336 12.2402 181.176 11.7441C181.016 11.2441 180.936 10.6836 180.936 10.0625V9.41211C180.936 8.79102 181.018 8.23047 181.182 7.73047C181.346 7.23047 181.58 6.80469 181.885 6.45312C182.193 6.09766 182.562 5.82422 182.992 5.63281C183.426 5.44141 183.91 5.3457 184.445 5.3457C185.141 5.3457 185.729 5.47461 186.209 5.73242C186.689 5.98633 187.062 6.33594 187.328 6.78125C187.594 7.22656 187.754 7.73828 187.809 8.31641H186.197C186.166 7.95703 186.088 7.65234 185.963 7.40234C185.842 7.15234 185.658 6.96289 185.412 6.83398C185.17 6.70117 184.848 6.63477 184.445 6.63477C184.133 6.63477 183.857 6.69336 183.619 6.81055C183.385 6.92773 183.189 7.10352 183.033 7.33789C182.877 7.56836 182.76 7.85742 182.682 8.20508C182.604 8.54883 182.564 8.94727 182.564 9.40039V10.0625C182.564 10.4961 182.6 10.8848 182.67 11.2285C182.74 11.5723 182.85 11.8633 182.998 12.1016C183.146 12.3398 183.338 12.5215 183.572 12.6465C183.807 12.7715 184.086 12.834 184.41 12.834C184.805 12.834 185.125 12.7715 185.371 12.6465C185.621 12.5215 185.811 12.3379 185.939 12.0957C186.072 11.8535 186.156 11.5527 186.191 11.1934ZM190.574 5V14H189.021V5H190.574ZM191.775 10.8945V10.7715C191.775 10.3066 191.842 9.87891 191.975 9.48828C192.107 9.09375 192.301 8.75195 192.555 8.46289C192.809 8.17383 193.119 7.94922 193.486 7.78906C193.854 7.625 194.271 7.54297 194.74 7.54297C195.217 7.54297 195.639 7.625 196.006 7.78906C196.377 7.94922 196.689 8.17383 196.943 8.46289C197.197 8.75195 197.391 9.09375 197.523 9.48828C197.656 9.87891 197.723 10.3066 197.723 10.7715V10.8945C197.723 11.3555 197.656 11.7832 197.523 12.1777C197.391 12.5684 197.197 12.9102 196.943 13.2031C196.689 13.4922 196.379 13.7168 196.012 13.877C195.645 14.0371 195.225 14.1172 194.752 14.1172C194.283 14.1172 193.863 14.0371 193.492 13.877C193.121 13.7168 192.809 13.4922 192.555 13.2031C192.301 12.9102 192.107 12.5684 191.975 12.1777C191.842 11.7832 191.775 11.3555 191.775 10.8945ZM193.322 10.7715V10.8945C193.322 11.1719 193.35 11.4316 193.404 11.6738C193.459 11.916 193.543 12.1289 193.656 12.3125C193.77 12.4961 193.916 12.6406 194.096 12.7461C194.279 12.8477 194.498 12.8984 194.752 12.8984C195.002 12.8984 195.217 12.8477 195.396 12.7461C195.576 12.6406 195.723 12.4961 195.836 12.3125C195.953 12.1289 196.039 11.916 196.094 11.6738C196.148 11.4316 196.176 11.1719 196.176 10.8945V10.7715C196.176 10.498 196.148 10.2422 196.094 10.0039C196.039 9.76172 195.953 9.54883 195.836 9.36523C195.723 9.17773 195.574 9.03125 195.391 8.92578C195.211 8.81641 194.994 8.76172 194.74 8.76172C194.49 8.76172 194.275 8.81641 194.096 8.92578C193.916 9.03125 193.77 9.17773 193.656 9.36523C193.543 9.54883 193.459 9.76172 193.404 10.0039C193.35 10.2422 193.322 10.498 193.322 10.7715ZM202.621 12.4941V7.66016H204.18V14H202.715L202.621 12.4941ZM202.82 11.1816L203.301 11.1699C203.301 11.5957 203.254 11.9883 203.16 12.3477C203.066 12.707 202.92 13.0195 202.721 13.2852C202.525 13.5469 202.277 13.752 201.977 13.9004C201.676 14.0449 201.32 14.1172 200.91 14.1172C200.598 14.1172 200.312 14.0742 200.055 13.9883C199.797 13.8984 199.574 13.7598 199.387 13.5723C199.203 13.3809 199.061 13.1367 198.959 12.8398C198.857 12.5391 198.807 12.1777 198.807 11.7559V7.66016H200.354V11.7676C200.354 11.9785 200.377 12.1543 200.424 12.2949C200.475 12.4355 200.543 12.5508 200.629 12.6406C200.719 12.7266 200.822 12.7891 200.939 12.8281C201.061 12.8633 201.189 12.8809 201.326 12.8809C201.701 12.8809 201.996 12.8066 202.211 12.6582C202.43 12.5059 202.586 12.3027 202.68 12.0488C202.773 11.791 202.82 11.502 202.82 11.1816ZM209.354 12.6523V5H210.912V14H209.506L209.354 12.6523ZM205.281 10.9062V10.7832C205.281 10.2988 205.336 9.85938 205.445 9.46484C205.559 9.06641 205.723 8.72461 205.938 8.43945C206.152 8.1543 206.412 7.93359 206.717 7.77734C207.025 7.62109 207.375 7.54297 207.766 7.54297C208.145 7.54297 208.475 7.61914 208.756 7.77148C209.041 7.92383 209.283 8.14062 209.482 8.42188C209.686 8.70312 209.848 9.03711 209.969 9.42383C210.09 9.80664 210.178 10.2285 210.232 10.6895V11.0234C210.178 11.4727 210.09 11.8848 209.969 12.2598C209.848 12.6348 209.686 12.9629 209.482 13.2441C209.283 13.5215 209.041 13.7363 208.756 13.8887C208.471 14.041 208.137 14.1172 207.754 14.1172C207.367 14.1172 207.02 14.0371 206.711 13.877C206.406 13.7168 206.146 13.4922 205.932 13.2031C205.721 12.9141 205.559 12.5742 205.445 12.1836C205.336 11.793 205.281 11.3672 205.281 10.9062ZM206.834 10.7832V10.9062C206.834 11.1797 206.857 11.4355 206.904 11.6738C206.951 11.9121 207.027 12.123 207.133 12.3066C207.238 12.4863 207.373 12.627 207.537 12.7285C207.705 12.8301 207.908 12.8809 208.146 12.8809C208.451 12.8809 208.701 12.8145 208.896 12.6816C209.096 12.5449 209.25 12.3594 209.359 12.125C209.469 11.8867 209.539 11.6191 209.57 11.3223V10.4023C209.555 10.168 209.514 9.95117 209.447 9.75195C209.385 9.55273 209.295 9.38086 209.178 9.23633C209.064 9.0918 208.924 8.97852 208.756 8.89648C208.588 8.81445 208.389 8.77344 208.158 8.77344C207.92 8.77344 207.717 8.82617 207.549 8.93164C207.381 9.0332 207.244 9.17578 207.139 9.35938C207.033 9.54297 206.955 9.75586 206.904 9.99805C206.857 10.2402 206.834 10.502 206.834 10.7832ZM191.107 26.7812V28H185.33V26.957L188.102 23.9629C188.391 23.6348 188.619 23.3496 188.787 23.1074C188.955 22.8652 189.074 22.6465 189.145 22.4512C189.219 22.252 189.256 22.0625 189.256 21.8828C189.256 21.6211 189.209 21.3926 189.115 21.1973C189.021 20.998 188.885 20.8438 188.705 20.7344C188.529 20.625 188.312 20.5703 188.055 20.5703C187.77 20.5703 187.525 20.6367 187.322 20.7695C187.123 20.8984 186.971 21.0781 186.865 21.3086C186.764 21.5391 186.713 21.8027 186.713 22.0996H185.16C185.16 21.5957 185.277 21.1367 185.512 20.7227C185.746 20.3047 186.082 19.9707 186.52 19.7207C186.957 19.4707 187.477 19.3457 188.078 19.3457C188.664 19.3457 189.16 19.4434 189.566 19.6387C189.973 19.8301 190.281 20.1035 190.492 20.459C190.703 20.8145 190.809 21.2383 190.809 21.7305C190.809 22.0039 190.764 22.2734 190.674 22.5391C190.584 22.8047 190.457 23.0684 190.293 23.3301C190.133 23.5879 189.941 23.8496 189.719 24.1152C189.496 24.3809 189.248 24.6523 188.975 24.9297L187.311 26.7812H191.107ZM193.721 24.0742L192.484 23.7754L192.959 19.4688H197.652V20.752H194.242L194.02 22.7441C194.141 22.6699 194.316 22.5957 194.547 22.5215C194.781 22.4434 195.045 22.4043 195.338 22.4043C195.744 22.4043 196.107 22.4707 196.428 22.6035C196.748 22.7324 197.02 22.9199 197.242 23.166C197.469 23.4121 197.639 23.7129 197.752 24.0684C197.869 24.4199 197.928 24.8184 197.928 25.2637C197.928 25.6543 197.869 26.0215 197.752 26.3652C197.639 26.7051 197.465 27.0078 197.23 27.2734C196.996 27.5352 196.701 27.7422 196.346 27.8945C195.99 28.043 195.572 28.1172 195.092 28.1172C194.729 28.1172 194.379 28.0645 194.043 27.959C193.711 27.8496 193.412 27.6914 193.146 27.4844C192.881 27.2734 192.668 27.0156 192.508 26.7109C192.352 26.4062 192.266 26.0566 192.25 25.6621H193.779C193.807 25.9238 193.877 26.1465 193.99 26.3301C194.104 26.5137 194.252 26.6543 194.436 26.752C194.623 26.8496 194.84 26.8984 195.086 26.8984C195.309 26.8984 195.5 26.8574 195.66 26.7754C195.824 26.6895 195.959 26.5703 196.064 26.418C196.17 26.2656 196.248 26.0859 196.299 25.8789C196.35 25.6719 196.375 25.4453 196.375 25.1992C196.375 24.9609 196.346 24.7441 196.287 24.5488C196.229 24.3496 196.139 24.1777 196.018 24.0332C195.896 23.8887 195.744 23.7773 195.561 23.6992C195.381 23.6211 195.17 23.582 194.928 23.582C194.604 23.582 194.354 23.6309 194.178 23.7285C194.006 23.8262 193.854 23.9414 193.721 24.0742ZM199 21.5605V21.1094C199 20.7852 199.07 20.4902 199.211 20.2246C199.352 19.959 199.557 19.7461 199.826 19.5859C200.1 19.4258 200.432 19.3457 200.822 19.3457C201.221 19.3457 201.555 19.4258 201.824 19.5859C202.098 19.7461 202.303 19.959 202.439 20.2246C202.58 20.4902 202.65 20.7852 202.65 21.1094V21.5605C202.65 21.877 202.58 22.168 202.439 22.4336C202.303 22.6992 202.1 22.9121 201.83 23.0723C201.561 23.2324 201.229 23.3125 200.834 23.3125C200.439 23.3125 200.105 23.2324 199.832 23.0723C199.559 22.9121 199.352 22.6992 199.211 22.4336C199.07 22.168 199 21.877 199 21.5605ZM200.049 21.1094V21.5605C200.049 21.709 200.076 21.8496 200.131 21.9824C200.189 22.1113 200.277 22.2168 200.395 22.2988C200.512 22.3809 200.658 22.4219 200.834 22.4219C201.01 22.4219 201.152 22.3809 201.262 22.2988C201.375 22.2168 201.459 22.1113 201.514 21.9824C201.572 21.8496 201.602 21.709 201.602 21.5605V21.1094C201.602 20.957 201.572 20.8145 201.514 20.6816C201.459 20.5488 201.373 20.4414 201.256 20.3594C201.143 20.2773 200.998 20.2363 200.822 20.2363C200.65 20.2363 200.506 20.2773 200.389 20.3594C200.275 20.4414 200.189 20.5488 200.131 20.6816C200.076 20.8145 200.049 20.957 200.049 21.1094ZM203.096 26.3594V25.9082C203.096 25.5879 203.166 25.2949 203.307 25.0293C203.451 24.7637 203.66 24.5508 203.934 24.3906C204.207 24.2305 204.537 24.1504 204.924 24.1504C205.326 24.1504 205.662 24.2305 205.932 24.3906C206.201 24.5508 206.404 24.7637 206.541 25.0293C206.682 25.2949 206.752 25.5879 206.752 25.9082V26.3594C206.752 26.6797 206.682 26.9727 206.541 27.2383C206.404 27.5039 206.201 27.7168 205.932 27.877C205.666 28.0371 205.336 28.1172 204.941 28.1172C204.547 28.1172 204.211 28.0371 203.934 27.877C203.66 27.7168 203.451 27.5039 203.307 27.2383C203.166 26.9727 203.096 26.6797 203.096 26.3594ZM204.15 25.9082V26.3594C204.15 26.5117 204.182 26.6543 204.244 26.7871C204.307 26.916 204.396 27.0215 204.514 27.1035C204.635 27.1855 204.775 27.2266 204.936 27.2266C205.131 27.2266 205.285 27.1855 205.398 27.1035C205.512 27.0215 205.592 26.916 205.639 26.7871C205.686 26.6543 205.709 26.5117 205.709 26.3594V25.9082C205.709 25.7559 205.68 25.6152 205.621 25.4863C205.562 25.3535 205.475 25.2461 205.357 25.1641C205.244 25.082 205.1 25.041 204.924 25.041C204.752 25.041 204.607 25.082 204.49 25.1641C204.377 25.2461 204.291 25.3535 204.232 25.4863C204.178 25.6152 204.15 25.7559 204.15 25.9082ZM205.311 20.6875L201.145 27.3555L200.377 26.9277L204.543 20.2598L205.311 20.6875Z" fill="#3455FF"/>
<path d="M5.35156 7.19727H3.17188L3.16016 6.06055H5.0293C5.34961 6.06055 5.61719 6.01562 5.83203 5.92578C6.04688 5.83594 6.20898 5.70508 6.31836 5.5332C6.43164 5.36133 6.48828 5.15234 6.48828 4.90625C6.48828 4.63281 6.43555 4.41016 6.33008 4.23828C6.22852 4.06641 6.06836 3.94141 5.84961 3.86328C5.63086 3.78125 5.35352 3.74023 5.01758 3.74023H3.69336V11H2.08203V2.46875H5.01758C5.50195 2.46875 5.93359 2.51562 6.3125 2.60938C6.69531 2.69922 7.01953 2.83984 7.28516 3.03125C7.55078 3.22266 7.75195 3.46289 7.88867 3.75195C8.0293 4.04102 8.09961 4.38477 8.09961 4.7832C8.09961 5.13477 8.01758 5.45898 7.85352 5.75586C7.69336 6.04883 7.44531 6.28711 7.10938 6.4707C6.77734 6.6543 6.35547 6.75977 5.84375 6.78711L5.35156 7.19727ZM5.28125 11H2.69727L3.37109 9.73438H5.28125C5.60156 9.73438 5.86523 9.68164 6.07227 9.57617C6.2832 9.4707 6.43945 9.32617 6.54102 9.14258C6.64648 8.95508 6.69922 8.74023 6.69922 8.49805C6.69922 8.23242 6.65234 8.00195 6.55859 7.80664C6.46875 7.61133 6.32422 7.46094 6.125 7.35547C5.92969 7.25 5.67188 7.19727 5.35156 7.19727H3.67578L3.6875 6.06055H5.82031L6.18945 6.5C6.68164 6.50391 7.08203 6.60156 7.39062 6.79297C7.70312 6.98438 7.93359 7.23047 8.08203 7.53125C8.23047 7.83203 8.30469 8.15625 8.30469 8.50391C8.30469 9.05078 8.18555 9.50977 7.94727 9.88086C7.71289 10.252 7.36914 10.5312 6.91602 10.7188C6.4668 10.9062 5.92188 11 5.28125 11ZM13.0742 9.65234V6.72852C13.0742 6.51367 13.0371 6.32812 12.9629 6.17188C12.8887 6.01562 12.7754 5.89453 12.623 5.80859C12.4707 5.72266 12.2773 5.67969 12.043 5.67969C11.8359 5.67969 11.6543 5.71484 11.498 5.78516C11.3457 5.85547 11.2285 5.95508 11.1465 6.08398C11.0645 6.20898 11.0234 6.35352 11.0234 6.51758H9.4707C9.4707 6.25586 9.5332 6.00781 9.6582 5.77344C9.7832 5.53516 9.96094 5.32422 10.1914 5.14062C10.4258 4.95312 10.7051 4.80664 11.0293 4.70117C11.3574 4.5957 11.7246 4.54297 12.1309 4.54297C12.6113 4.54297 13.0391 4.625 13.4141 4.78906C13.793 4.94922 14.0898 5.19141 14.3047 5.51562C14.5234 5.83984 14.6328 6.24805 14.6328 6.74023V9.50586C14.6328 9.82227 14.6523 10.0938 14.6914 10.3203C14.7344 10.543 14.7969 10.7363 14.8789 10.9004V11H13.3027C13.2285 10.8398 13.1719 10.6367 13.1328 10.3906C13.0938 10.1406 13.0742 9.89453 13.0742 9.65234ZM13.291 7.13867L13.3027 8.05859H12.3242C12.082 8.05859 11.8691 8.08398 11.6855 8.13477C11.502 8.18164 11.3516 8.25195 11.2344 8.3457C11.1172 8.43555 11.0293 8.54492 10.9707 8.67383C10.9121 8.79883 10.8828 8.94141 10.8828 9.10156C10.8828 9.25781 10.918 9.39844 10.9883 9.52344C11.0625 9.64844 11.168 9.74805 11.3047 9.82227C11.4453 9.89258 11.6094 9.92773 11.7969 9.92773C12.0703 9.92773 12.3086 9.87305 12.5117 9.76367C12.7148 9.65039 12.873 9.51367 12.9863 9.35352C13.0996 9.19336 13.1602 9.04102 13.168 8.89648L13.6133 9.56445C13.5586 9.72461 13.4766 9.89453 13.3672 10.0742C13.2578 10.2539 13.1172 10.4219 12.9453 10.5781C12.7734 10.7344 12.5664 10.8633 12.3242 10.9648C12.082 11.0664 11.8008 11.1172 11.4805 11.1172C11.0703 11.1172 10.7031 11.0352 10.3789 10.8711C10.0547 10.707 9.79883 10.4824 9.61133 10.1973C9.42383 9.91211 9.33008 9.58789 9.33008 9.22461C9.33008 8.88867 9.39258 8.5918 9.51758 8.33398C9.64258 8.07617 9.82812 7.85938 10.0742 7.68359C10.3203 7.50391 10.625 7.36914 10.9883 7.2793C11.3555 7.18555 11.7754 7.13867 12.248 7.13867H13.291ZM18.6289 9.89844C18.8477 9.89844 19.043 9.85547 19.2148 9.76953C19.3867 9.68359 19.5234 9.5625 19.625 9.40625C19.7305 9.25 19.7871 9.06836 19.7949 8.86133H21.2539C21.2461 9.29102 21.125 9.67578 20.8906 10.0156C20.6562 10.3555 20.3438 10.625 19.9531 10.8242C19.5664 11.0195 19.1328 11.1172 18.6523 11.1172C18.1641 11.1172 17.7383 11.0352 17.375 10.8711C17.0117 10.707 16.709 10.4785 16.4668 10.1855C16.2285 9.89258 16.0488 9.55273 15.9277 9.16602C15.8105 8.7793 15.752 8.36523 15.752 7.92383V7.73633C15.752 7.29492 15.8105 6.88086 15.9277 6.49414C16.0488 6.10742 16.2285 5.76758 16.4668 5.47461C16.709 5.18164 17.0117 4.95312 17.375 4.78906C17.7383 4.625 18.1621 4.54297 18.6465 4.54297C19.1582 4.54297 19.6074 4.64258 19.9941 4.8418C20.3848 5.04102 20.6895 5.32227 20.9082 5.68555C21.1309 6.04883 21.2461 6.47656 21.2539 6.96875H19.7949C19.7871 6.74219 19.7363 6.53906 19.6426 6.35938C19.5488 6.17969 19.416 6.03516 19.2441 5.92578C19.0723 5.81641 18.8633 5.76172 18.6172 5.76172C18.3555 5.76172 18.1367 5.81641 17.9609 5.92578C17.7891 6.03516 17.6543 6.18555 17.5566 6.37695C17.4629 6.56445 17.3965 6.77539 17.3574 7.00977C17.3223 7.24023 17.3047 7.48242 17.3047 7.73633V7.92383C17.3047 8.18164 17.3223 8.42773 17.3574 8.66211C17.3965 8.89648 17.4629 9.10742 17.5566 9.29492C17.6543 9.47852 17.7891 9.625 17.9609 9.73438C18.1367 9.84375 18.3594 9.89844 18.6289 9.89844ZM23.832 1.99414V11H22.2852V1.99414H23.832ZM27.8047 4.66016L25.0449 7.75977L23.5508 9.27734L23.0586 8.07617L24.2129 6.62305L25.9355 4.66016H27.8047ZM26.2227 11L24.2598 8.04688L25.291 7.04492L28.0156 11H26.2227ZM31.3555 11.1172C30.875 11.1172 30.4434 11.0391 30.0605 10.8828C29.6777 10.7266 29.3516 10.5098 29.082 10.2324C28.8164 9.95117 28.6113 9.625 28.4668 9.25391C28.3262 8.87891 28.2559 8.47656 28.2559 8.04688V7.8125C28.2559 7.32422 28.3262 6.88086 28.4668 6.48242C28.6074 6.08008 28.8066 5.73438 29.0645 5.44531C29.3223 5.15625 29.6309 4.93359 29.9902 4.77734C30.3496 4.62109 30.7461 4.54297 31.1797 4.54297C31.6289 4.54297 32.0254 4.61914 32.3691 4.77148C32.7129 4.91992 33 5.13086 33.2305 5.4043C33.4609 5.67773 33.6348 6.00586 33.752 6.38867C33.8691 6.76758 33.9277 7.1875 33.9277 7.64844V8.29883H28.959V7.23242H32.4043V7.11523C32.3965 6.86914 32.3496 6.64453 32.2637 6.44141C32.1777 6.23438 32.0449 6.07031 31.8652 5.94922C31.6855 5.82422 31.4531 5.76172 31.168 5.76172C30.9375 5.76172 30.7363 5.8125 30.5645 5.91406C30.3965 6.01172 30.2559 6.15234 30.1426 6.33594C30.0332 6.51562 29.9512 6.73047 29.8965 6.98047C29.8418 7.23047 29.8145 7.50781 29.8145 7.8125V8.04688C29.8145 8.3125 29.8496 8.55859 29.9199 8.78516C29.9941 9.01172 30.1016 9.20898 30.2422 9.37695C30.3867 9.54102 30.5586 9.66992 30.7578 9.76367C30.9609 9.85352 31.1914 9.89844 31.4492 9.89844C31.7734 9.89844 32.0664 9.83594 32.3281 9.71094C32.5938 9.58203 32.8242 9.39258 33.0195 9.14258L33.7988 9.95117C33.666 10.1465 33.4863 10.334 33.2598 10.5137C33.0371 10.6934 32.7676 10.8398 32.4512 10.9531C32.1348 11.0625 31.7695 11.1172 31.3555 11.1172ZM36.4824 6.01367V11H34.9355V4.66016H36.3887L36.4824 6.01367ZM36.2363 7.60156H35.7793C35.7832 7.14062 35.8457 6.72266 35.9668 6.34766C36.0879 5.97266 36.2578 5.65039 36.4766 5.38086C36.6992 5.11133 36.9629 4.9043 37.2676 4.75977C37.5723 4.61523 37.9121 4.54297 38.2871 4.54297C38.5918 4.54297 38.8672 4.58594 39.1133 4.67188C39.3594 4.75781 39.5703 4.89453 39.7461 5.08203C39.9258 5.26953 40.0625 5.51562 40.1562 5.82031C40.2539 6.12109 40.3027 6.49219 40.3027 6.93359V11H38.7441V6.92188C38.7441 6.63281 38.7012 6.4043 38.6152 6.23633C38.5332 6.06836 38.4121 5.94922 38.252 5.87891C38.0957 5.80859 37.9023 5.77344 37.6719 5.77344C37.4336 5.77344 37.2246 5.82227 37.0449 5.91992C36.8691 6.01367 36.7207 6.14453 36.5996 6.3125C36.4824 6.48047 36.3926 6.67383 36.3301 6.89258C36.2676 7.11133 36.2363 7.34766 36.2363 7.60156ZM45.4707 9.65234V2H47.0293V11H45.623L45.4707 9.65234ZM41.3984 7.90625V7.7832C41.3984 7.29883 41.4531 6.85938 41.5625 6.46484C41.6758 6.06641 41.8398 5.72461 42.0547 5.43945C42.2695 5.1543 42.5293 4.93359 42.834 4.77734C43.1426 4.62109 43.4922 4.54297 43.8828 4.54297C44.2617 4.54297 44.5918 4.61914 44.873 4.77148C45.1582 4.92383 45.4004 5.14062 45.5996 5.42188C45.8027 5.70312 45.9648 6.03711 46.0859 6.42383C46.207 6.80664 46.2949 7.22852 46.3496 7.68945V8.02344C46.2949 8.47266 46.207 8.88477 46.0859 9.25977C45.9648 9.63477 45.8027 9.96289 45.5996 10.2441C45.4004 10.5215 45.1582 10.7363 44.873 10.8887C44.5879 11.041 44.2539 11.1172 43.8711 11.1172C43.4844 11.1172 43.1367 11.0371 42.8281 10.877C42.5234 10.7168 42.2637 10.4922 42.0488 10.2031C41.8379 9.91406 41.6758 9.57422 41.5625 9.18359C41.4531 8.79297 41.3984 8.36719 41.3984 7.90625ZM42.9512 7.7832V7.90625C42.9512 8.17969 42.9746 8.43555 43.0215 8.67383C43.0684 8.91211 43.1445 9.12305 43.25 9.30664C43.3555 9.48633 43.4902 9.62695 43.6543 9.72852C43.8223 9.83008 44.0254 9.88086 44.2637 9.88086C44.5684 9.88086 44.8184 9.81445 45.0137 9.68164C45.2129 9.54492 45.3672 9.35938 45.4766 9.125C45.5859 8.88672 45.6562 8.61914 45.6875 8.32227V7.40234C45.6719 7.16797 45.6309 6.95117 45.5645 6.75195C45.502 6.55273 45.4121 6.38086 45.2949 6.23633C45.1816 6.0918 45.041 5.97852 44.873 5.89648C44.7051 5.81445 44.5059 5.77344 44.2754 5.77344C44.0371 5.77344 43.834 5.82617 43.666 5.93164C43.498 6.0332 43.3613 6.17578 43.2559 6.35938C43.1504 6.54297 43.0723 6.75586 43.0215 6.99805C42.9746 7.24023 42.9512 7.50195 42.9512 7.7832ZM19.6074 23.7812V25H13.8301V23.957L16.6016 20.9629C16.8906 20.6348 17.1191 20.3496 17.2871 20.1074C17.4551 19.8652 17.5742 19.6465 17.6445 19.4512C17.7188 19.252 17.7559 19.0625 17.7559 18.8828C17.7559 18.6211 17.709 18.3926 17.6152 18.1973C17.5215 17.998 17.3848 17.8438 17.2051 17.7344C17.0293 17.625 16.8125 17.5703 16.5547 17.5703C16.2695 17.5703 16.0254 17.6367 15.8223 17.7695C15.623 17.8984 15.4707 18.0781 15.3652 18.3086C15.2637 18.5391 15.2129 18.8027 15.2129 19.0996H13.6602C13.6602 18.5957 13.7773 18.1367 14.0117 17.7227C14.2461 17.3047 14.582 16.9707 15.0195 16.7207C15.457 16.4707 15.9766 16.3457 16.5781 16.3457C17.1641 16.3457 17.6602 16.4434 18.0664 16.6387C18.4727 16.8301 18.7812 17.1035 18.9922 17.459C19.2031 17.8145 19.3086 18.2383 19.3086 18.7305C19.3086 19.0039 19.2637 19.2734 19.1738 19.5391C19.084 19.8047 18.957 20.0684 18.793 20.3301C18.6328 20.5879 18.4414 20.8496 18.2188 21.1152C17.9961 21.3809 17.748 21.6523 17.4746 21.9297L15.8105 23.7812H19.6074ZM26.334 20.002V21.4375C26.334 22.0938 26.2676 22.6543 26.1348 23.1191C26.002 23.584 25.8105 23.9648 25.5605 24.2617C25.3105 24.5547 25.0117 24.7715 24.6641 24.9121C24.3164 25.0488 23.9297 25.1172 23.5039 25.1172C23.1641 25.1172 22.8477 25.0742 22.5547 24.9883C22.2617 24.8984 21.998 24.7617 21.7637 24.5781C21.5332 24.3906 21.334 24.1523 21.166 23.8633C21.002 23.5742 20.875 23.2285 20.7852 22.8262C20.6992 22.4238 20.6562 21.9609 20.6562 21.4375V20.002C20.6562 19.3457 20.7227 18.7871 20.8555 18.3262C20.9922 17.8652 21.1855 17.4883 21.4355 17.1953C21.6855 16.9023 21.9844 16.6895 22.332 16.5566C22.6797 16.4199 23.0664 16.3516 23.4922 16.3516C23.8359 16.3516 24.1523 16.3945 24.4414 16.4805C24.7344 16.5664 24.9961 16.7012 25.2266 16.8848C25.4609 17.0645 25.6602 17.2988 25.8242 17.5879C25.9883 17.873 26.1133 18.2168 26.1992 18.6191C26.2891 19.0176 26.334 19.4785 26.334 20.002ZM24.7871 21.6484V19.7852C24.7871 19.457 24.7676 19.1719 24.7285 18.9297C24.6934 18.6836 24.6406 18.4746 24.5703 18.3027C24.5 18.1309 24.4121 17.9922 24.3066 17.8867C24.2012 17.7773 24.0801 17.6973 23.9434 17.6465C23.8066 17.5957 23.6562 17.5703 23.4922 17.5703C23.2891 17.5703 23.1074 17.6113 22.9473 17.6934C22.7871 17.7715 22.6523 17.8965 22.543 18.0684C22.4336 18.2402 22.3496 18.4688 22.291 18.7539C22.2363 19.0352 22.209 19.3789 22.209 19.7852V21.6484C22.209 21.9766 22.2266 22.2637 22.2617 22.5098C22.3008 22.7559 22.3555 22.9668 22.4258 23.1426C22.5 23.3184 22.5879 23.4629 22.6895 23.5762C22.7949 23.6855 22.916 23.7676 23.0527 23.8223C23.1895 23.873 23.3398 23.8984 23.5039 23.8984C23.7109 23.8984 23.8926 23.8574 24.0488 23.7754C24.209 23.6934 24.3438 23.5645 24.4531 23.3887C24.5625 23.209 24.6445 22.9766 24.6992 22.6914C24.7578 22.4023 24.7871 22.0547 24.7871 21.6484ZM27.5 18.5605V18.1094C27.5 17.7852 27.5703 17.4902 27.7109 17.2246C27.8516 16.959 28.0566 16.7461 28.3262 16.5859C28.5996 16.4258 28.9316 16.3457 29.3223 16.3457C29.7207 16.3457 30.0547 16.4258 30.3242 16.5859C30.5977 16.7461 30.8027 16.959 30.9395 17.2246C31.0801 17.4902 31.1504 17.7852 31.1504 18.1094V18.5605C31.1504 18.877 31.0801 19.168 30.9395 19.4336C30.8027 19.6992 30.5996 19.9121 30.3301 20.0723C30.0605 20.2324 29.7285 20.3125 29.334 20.3125C28.9395 20.3125 28.6055 20.2324 28.332 20.0723C28.0586 19.9121 27.8516 19.6992 27.7109 19.4336C27.5703 19.168 27.5 18.877 27.5 18.5605ZM28.5488 18.1094V18.5605C28.5488 18.709 28.5762 18.8496 28.6309 18.9824C28.6895 19.1113 28.7773 19.2168 28.8945 19.2988C29.0117 19.3809 29.1582 19.4219 29.334 19.4219C29.5098 19.4219 29.6523 19.3809 29.7617 19.2988C29.875 19.2168 29.959 19.1113 30.0137 18.9824C30.0723 18.8496 30.1016 18.709 30.1016 18.5605V18.1094C30.1016 17.957 30.0723 17.8145 30.0137 17.6816C29.959 17.5488 29.873 17.4414 29.7559 17.3594C29.6426 17.2773 29.498 17.2363 29.3223 17.2363C29.1504 17.2363 29.0059 17.2773 28.8887 17.3594C28.7754 17.4414 28.6895 17.5488 28.6309 17.6816C28.5762 17.8145 28.5488 17.957 28.5488 18.1094ZM31.5957 23.3594V22.9082C31.5957 22.5879 31.666 22.2949 31.8066 22.0293C31.9512 21.7637 32.1602 21.5508 32.4336 21.3906C32.707 21.2305 33.0371 21.1504 33.4238 21.1504C33.8262 21.1504 34.1621 21.2305 34.4316 21.3906C34.7012 21.5508 34.9043 21.7637 35.041 22.0293C35.1816 22.2949 35.252 22.5879 35.252 22.9082V23.3594C35.252 23.6797 35.1816 23.9727 35.041 24.2383C34.9043 24.5039 34.7012 24.7168 34.4316 24.877C34.166 25.0371 33.8359 25.1172 33.4414 25.1172C33.0469 25.1172 32.7109 25.0371 32.4336 24.877C32.1602 24.7168 31.9512 24.5039 31.8066 24.2383C31.666 23.9727 31.5957 23.6797 31.5957 23.3594ZM32.6504 22.9082V23.3594C32.6504 23.5117 32.6816 23.6543 32.7441 23.7871C32.8066 23.916 32.8965 24.0215 33.0137 24.1035C33.1348 24.1855 33.2754 24.2266 33.4355 24.2266C33.6309 24.2266 33.7852 24.1855 33.8984 24.1035C34.0117 24.0215 34.0918 23.916 34.1387 23.7871C34.1855 23.6543 34.209 23.5117 34.209 23.3594V22.9082C34.209 22.7559 34.1797 22.6152 34.1211 22.4863C34.0625 22.3535 33.9746 22.2461 33.8574 22.1641C33.7441 22.082 33.5996 22.041 33.4238 22.041C33.252 22.041 33.1074 22.082 32.9902 22.1641C32.877 22.2461 32.791 22.3535 32.7324 22.4863C32.6777 22.6152 32.6504 22.7559 32.6504 22.9082ZM33.8105 17.6875L29.6445 24.3555L28.877 23.9277L33.043 17.2598L33.8105 17.6875Z" fill="#788EFF"/>
</svg>
