<svg width="18" height="17" viewBox="0 0 18 17" fill="none" xmlns="http://www.w3.org/2000/svg">
<path fill-rule="evenodd" clip-rule="evenodd" d="M15 4.94445C15 4.59083 15.158 4.25169 15.4393 4.00164C15.7206 3.75159 16.1022 3.61111 16.5 3.61111C16.8978 3.61111 17.2793 3.75159 17.5606 4.00164C17.8419 4.25169 18 4.59083 18 4.94445V13.968L16.5 15.968L15 13.968V4.94445ZM16.5 4.5C16.3674 4.5 16.2402 4.54683 16.1464 4.63018C16.0527 4.71353 16 4.82657 16 4.94445V13.6987L16.5 14.3653L17 13.6987V4.94445C17 4.82657 16.9473 4.71353 16.8535 4.63018C16.7598 4.54683 16.6326 4.5 16.5 4.5Z" fill="black"/>
<path fill-rule="evenodd" clip-rule="evenodd" d="M17.4997 6.72222H15.4997V5.83333H17.4997V6.72222ZM1.99997 1.38889C1.73476 1.38889 1.48041 1.48254 1.29287 1.64924C1.10534 1.81594 0.999984 2.04203 0.999984 2.27778V14.7222C0.999984 14.958 1.10534 15.1841 1.29287 15.3508C1.48041 15.5175 1.73476 15.6111 1.99997 15.6111H11.9998C12.265 15.6111 12.5194 15.5175 12.7069 15.3508C12.8944 15.1841 12.9998 14.958 12.9998 14.7222V2.27778C12.9998 2.04203 12.8944 1.81594 12.7069 1.64924C12.5194 1.48254 12.265 1.38889 11.9998 1.38889H1.99997ZM0 2.27778C0 1.80628 0.21071 1.3541 0.585777 1.0207C0.960844 0.687301 1.46954 0.5 1.99997 0.5H11.9998C12.5302 0.5 13.0389 0.687301 13.414 1.0207C13.7891 1.3541 13.9998 1.80628 13.9998 2.27778V14.7222C13.9998 15.1937 13.7891 15.6459 13.414 15.9793C13.0389 16.3127 12.5302 16.5 11.9998 16.5H1.99997C1.46954 16.5 0.960844 16.3127 0.585777 15.9793C0.21071 15.6459 0 15.1937 0 14.7222V2.27778Z" fill="black"/>
<path fill-rule="evenodd" clip-rule="evenodd" d="M7.0002 4.49999C7.0002 4.38212 7.05288 4.26907 7.14665 4.18572C7.24041 4.10237 7.36759 4.05555 7.5002 4.05555H11.5001C11.6327 4.05555 11.7599 4.10237 11.8537 4.18572C11.9474 4.26907 12.0001 4.38212 12.0001 4.49999C12.0001 4.61787 11.9474 4.73091 11.8537 4.81426C11.7599 4.89761 11.6327 4.94444 11.5001 4.94444H7.5002C7.36759 4.94444 7.24041 4.89761 7.14665 4.81426C7.05288 4.73091 7.0002 4.61787 7.0002 4.49999ZM7.0002 6.27777C7.0002 6.1599 7.05288 6.04685 7.14665 5.9635C7.24041 5.88015 7.36759 5.83333 7.5002 5.83333H11.5001C11.6327 5.83333 11.7599 5.88015 11.8537 5.9635C11.9474 6.04685 12.0001 6.1599 12.0001 6.27777C12.0001 6.39565 11.9474 6.50869 11.8537 6.59204C11.7599 6.67539 11.6327 6.72222 11.5001 6.72222H7.5002C7.36759 6.72222 7.24041 6.67539 7.14665 6.59204C7.05288 6.50869 7.0002 6.39565 7.0002 6.27777ZM7.0002 10.2778C7.0002 10.1599 7.05288 10.0469 7.14665 9.9635C7.24041 9.88015 7.36759 9.83333 7.5002 9.83333H11.5001C11.6327 9.83333 11.7599 9.88015 11.8537 9.9635C11.9474 10.0469 12.0001 10.1599 12.0001 10.2778C12.0001 10.3956 11.9474 10.5087 11.8537 10.592C11.7599 10.6754 11.6327 10.7222 11.5001 10.7222H7.5002C7.36759 10.7222 7.24041 10.6754 7.14665 10.592C7.05288 10.5087 7.0002 10.3956 7.0002 10.2778ZM7.0002 12.0555C7.0002 11.9377 7.05288 11.8246 7.14665 11.7413C7.24041 11.6579 7.36759 11.6111 7.5002 11.6111H11.5001C11.6327 11.6111 11.7599 11.6579 11.8537 11.7413C11.9474 11.8246 12.0001 11.9377 12.0001 12.0555C12.0001 12.1734 11.9474 12.2865 11.8537 12.3698C11.7599 12.4532 11.6327 12.5 11.5001 12.5H7.5002C7.36759 12.5 7.24041 12.4532 7.14665 12.3698C7.05288 12.2865 7.0002 12.1734 7.0002 12.0555ZM3.00027 10.2778V11.6111H4.50024V10.2778H3.00027ZM2.50028 9.38888H5.00024C5.13284 9.38888 5.26002 9.43571 5.35378 9.51906C5.44755 9.60241 5.50023 9.71545 5.50023 9.83333V12.0555C5.50023 12.1734 5.44755 12.2865 5.35378 12.3698C5.26002 12.4532 5.13284 12.5 5.00024 12.5H2.50028C2.36767 12.5 2.2405 12.4532 2.14673 12.3698C2.05296 12.2865 2.00028 12.1734 2.00028 12.0555V9.83333C2.00028 9.71545 2.05296 9.60241 2.14673 9.51906C2.2405 9.43571 2.36767 9.38888 2.50028 9.38888V9.38888ZM5.85372 4.18577C5.94746 4.26912 6.00011 4.38214 6.00011 4.49999C6.00011 4.61784 5.94746 4.73087 5.85372 4.81422L3.50026 6.90622L2.14678 5.70311C2.09903 5.66211 2.06094 5.61306 2.03473 5.55884C2.00853 5.50462 1.99474 5.4463 1.99416 5.38728C1.99358 5.32827 2.00623 5.26975 2.03137 5.21513C2.05651 5.16051 2.09364 5.11088 2.14059 5.06915C2.18753 5.02742 2.24336 4.99442 2.3048 4.97207C2.36625 4.94973 2.43209 4.93848 2.49848 4.93899C2.56487 4.93951 2.63047 4.95177 2.69148 4.97506C2.75248 4.99835 2.80765 5.03221 2.85377 5.07466L3.50026 5.64933L5.14673 4.18577C5.2405 4.10245 5.36765 4.05564 5.50023 4.05564C5.63281 4.05564 5.75996 4.10245 5.85372 4.18577V4.18577Z" fill="black"/>
</svg>
