<svg width="18" height="17" viewBox="0 0 18 17" fill="none" xmlns="http://www.w3.org/2000/svg">
<path d="M3.31582 2C3.31582 1.17156 3.95233 0.5 4.73687 0.5C5.52141 0.5 6.15792 1.17156 6.15792 2C6.15792 2.82844 5.52141 3.5 4.73687 3.5C3.95233 3.5 3.31582 2.82844 3.31582 2ZM3.55266 16.5C3.02865 16.5 2.6053 16.0531 2.6053 15.5V8.52812L1.75948 10.0156C1.49007 10.4875 0.908031 10.6406 0.459512 10.3562C0.0109934 10.0719 -0.134072 9.45937 0.135631 8.98438L1.86073 5.95625C2.37438 5.05313 3.29806 4.5 4.29575 4.5H8.52634V2C8.52634 1.17156 9.16285 0.5 9.94739 0.5H16.579C17.3635 0.5 18 1.17156 18 2V9C18 9.82812 17.3635 10.5 16.579 10.5H9.94739C9.16285 10.5 8.52634 9.82812 8.52634 9V7.5H10.4211V8.5H16.1053V2.5H10.4211V4.5H10.8948C11.4188 4.5 11.8421 4.94687 11.8421 5.5C11.8421 6.05313 11.4188 6.5 10.8948 6.5H6.86845V15.5C6.86845 16.0531 6.44509 16.5 5.92108 16.5C5.39707 16.5 4.97371 16.0531 4.97371 15.5V11.5H4.50003V15.5C4.50003 16.0531 4.07668 16.5 3.55266 16.5Z" fill="black"/>
</svg>
