<svg width="309" height="309" viewBox="0 0 309 309" fill="none" xmlns="http://www.w3.org/2000/svg">
<path d="M191.963 51.6077C215.932 60.3349 236.103 77.1568 248.993 99.1696C261.882 121.182 266.682 147.005 262.564 172.179L207.343 163.145C209.357 150.835 207.01 138.208 200.707 127.443C194.404 116.679 184.541 108.453 172.819 104.186L191.963 51.6077Z" fill="#BBC6FF"/>
<path d="M262.495 172.594C259.832 188.491 253.692 203.604 244.513 216.854C235.334 230.104 223.344 241.164 209.397 249.245C195.451 257.326 179.892 262.228 163.832 263.602C147.772 264.975 131.607 262.786 116.491 257.191L135.914 204.716C143.306 207.452 151.21 208.522 159.064 207.851C166.917 207.179 174.525 204.782 181.345 200.83C188.165 196.879 194.028 191.47 198.517 184.991C203.005 178.512 206.007 171.121 207.31 163.348L262.495 172.594Z" fill="#788EFF"/>
<path d="M116.708 257.272C89.4516 247.249 67.2929 226.808 55.1068 200.448C42.9208 174.087 41.7056 143.965 51.7287 116.708C61.7517 89.4512 82.192 67.2925 108.553 55.1065C134.914 42.9204 165.036 41.7052 192.292 51.7283L172.981 104.245C159.652 99.3433 144.922 99.9376 132.032 105.897C119.142 111.856 109.146 122.691 104.245 136.02C99.3437 149.348 99.9379 164.078 105.897 176.968C111.856 189.859 122.692 199.854 136.02 204.755L116.708 257.272Z" fill="#3455FF"/>
<path d="M232.352 52.1973H230.172L230.16 51.0605H232.029C232.35 51.0605 232.617 51.0156 232.832 50.9258C233.047 50.8359 233.209 50.7051 233.318 50.5332C233.432 50.3613 233.488 50.1523 233.488 49.9062C233.488 49.6328 233.436 49.4102 233.33 49.2383C233.229 49.0664 233.068 48.9414 232.85 48.8633C232.631 48.7812 232.354 48.7402 232.018 48.7402H230.693V56H229.082V47.4688H232.018C232.502 47.4688 232.934 47.5156 233.312 47.6094C233.695 47.6992 234.02 47.8398 234.285 48.0312C234.551 48.2227 234.752 48.4629 234.889 48.752C235.029 49.041 235.1 49.3848 235.1 49.7832C235.1 50.1348 235.018 50.459 234.854 50.7559C234.693 51.0488 234.445 51.2871 234.109 51.4707C233.777 51.6543 233.355 51.7598 232.844 51.7871L232.352 52.1973ZM232.281 56H229.697L230.371 54.7344H232.281C232.602 54.7344 232.865 54.6816 233.072 54.5762C233.283 54.4707 233.439 54.3262 233.541 54.1426C233.646 53.9551 233.699 53.7402 233.699 53.498C233.699 53.2324 233.652 53.002 233.559 52.8066C233.469 52.6113 233.324 52.4609 233.125 52.3555C232.93 52.25 232.672 52.1973 232.352 52.1973H230.676L230.688 51.0605H232.82L233.189 51.5C233.682 51.5039 234.082 51.6016 234.391 51.793C234.703 51.9844 234.934 52.2305 235.082 52.5312C235.23 52.832 235.305 53.1562 235.305 53.5039C235.305 54.0508 235.186 54.5098 234.947 54.8809C234.713 55.252 234.369 55.5312 233.916 55.7188C233.467 55.9062 232.922 56 232.281 56ZM240.074 54.6523V51.7285C240.074 51.5137 240.037 51.3281 239.963 51.1719C239.889 51.0156 239.775 50.8945 239.623 50.8086C239.471 50.7227 239.277 50.6797 239.043 50.6797C238.836 50.6797 238.654 50.7148 238.498 50.7852C238.346 50.8555 238.229 50.9551 238.146 51.084C238.064 51.209 238.023 51.3535 238.023 51.5176H236.471C236.471 51.2559 236.533 51.0078 236.658 50.7734C236.783 50.5352 236.961 50.3242 237.191 50.1406C237.426 49.9531 237.705 49.8066 238.029 49.7012C238.357 49.5957 238.725 49.543 239.131 49.543C239.611 49.543 240.039 49.625 240.414 49.7891C240.793 49.9492 241.09 50.1914 241.305 50.5156C241.523 50.8398 241.633 51.248 241.633 51.7402V54.5059C241.633 54.8223 241.652 55.0938 241.691 55.3203C241.734 55.543 241.797 55.7363 241.879 55.9004V56H240.303C240.229 55.8398 240.172 55.6367 240.133 55.3906C240.094 55.1406 240.074 54.8945 240.074 54.6523ZM240.291 52.1387L240.303 53.0586H239.324C239.082 53.0586 238.869 53.084 238.686 53.1348C238.502 53.1816 238.352 53.252 238.234 53.3457C238.117 53.4355 238.029 53.5449 237.971 53.6738C237.912 53.7988 237.883 53.9414 237.883 54.1016C237.883 54.2578 237.918 54.3984 237.988 54.5234C238.062 54.6484 238.168 54.748 238.305 54.8223C238.445 54.8926 238.609 54.9277 238.797 54.9277C239.07 54.9277 239.309 54.873 239.512 54.7637C239.715 54.6504 239.873 54.5137 239.986 54.3535C240.1 54.1934 240.16 54.041 240.168 53.8965L240.613 54.5645C240.559 54.7246 240.477 54.8945 240.367 55.0742C240.258 55.2539 240.117 55.4219 239.945 55.5781C239.773 55.7344 239.566 55.8633 239.324 55.9648C239.082 56.0664 238.801 56.1172 238.48 56.1172C238.07 56.1172 237.703 56.0352 237.379 55.8711C237.055 55.707 236.799 55.4824 236.611 55.1973C236.424 54.9121 236.33 54.5879 236.33 54.2246C236.33 53.8887 236.393 53.5918 236.518 53.334C236.643 53.0762 236.828 52.8594 237.074 52.6836C237.32 52.5039 237.625 52.3691 237.988 52.2793C238.355 52.1855 238.775 52.1387 239.248 52.1387H240.291ZM245.629 54.8984C245.848 54.8984 246.043 54.8555 246.215 54.7695C246.387 54.6836 246.523 54.5625 246.625 54.4062C246.73 54.25 246.787 54.0684 246.795 53.8613H248.254C248.246 54.291 248.125 54.6758 247.891 55.0156C247.656 55.3555 247.344 55.625 246.953 55.8242C246.566 56.0195 246.133 56.1172 245.652 56.1172C245.164 56.1172 244.738 56.0352 244.375 55.8711C244.012 55.707 243.709 55.4785 243.467 55.1855C243.229 54.8926 243.049 54.5527 242.928 54.166C242.811 53.7793 242.752 53.3652 242.752 52.9238V52.7363C242.752 52.2949 242.811 51.8809 242.928 51.4941C243.049 51.1074 243.229 50.7676 243.467 50.4746C243.709 50.1816 244.012 49.9531 244.375 49.7891C244.738 49.625 245.162 49.543 245.646 49.543C246.158 49.543 246.607 49.6426 246.994 49.8418C247.385 50.041 247.689 50.3223 247.908 50.6855C248.131 51.0488 248.246 51.4766 248.254 51.9688H246.795C246.787 51.7422 246.736 51.5391 246.643 51.3594C246.549 51.1797 246.416 51.0352 246.244 50.9258C246.072 50.8164 245.863 50.7617 245.617 50.7617C245.355 50.7617 245.137 50.8164 244.961 50.9258C244.789 51.0352 244.654 51.1855 244.557 51.377C244.463 51.5645 244.396 51.7754 244.357 52.0098C244.322 52.2402 244.305 52.4824 244.305 52.7363V52.9238C244.305 53.1816 244.322 53.4277 244.357 53.6621C244.396 53.8965 244.463 54.1074 244.557 54.2949C244.654 54.4785 244.789 54.625 244.961 54.7344C245.137 54.8438 245.359 54.8984 245.629 54.8984ZM250.832 46.9941V56H249.285V46.9941H250.832ZM254.805 49.6602L252.045 52.7598L250.551 54.2773L250.059 53.0762L251.213 51.623L252.936 49.6602H254.805ZM253.223 56L251.26 53.0469L252.291 52.0449L255.016 56H253.223ZM258.355 56.1172C257.875 56.1172 257.443 56.0391 257.061 55.8828C256.678 55.7266 256.352 55.5098 256.082 55.2324C255.816 54.9512 255.611 54.625 255.467 54.2539C255.326 53.8789 255.256 53.4766 255.256 53.0469V52.8125C255.256 52.3242 255.326 51.8809 255.467 51.4824C255.607 51.0801 255.807 50.7344 256.064 50.4453C256.322 50.1562 256.631 49.9336 256.99 49.7773C257.35 49.6211 257.746 49.543 258.18 49.543C258.629 49.543 259.025 49.6191 259.369 49.7715C259.713 49.9199 260 50.1309 260.23 50.4043C260.461 50.6777 260.635 51.0059 260.752 51.3887C260.869 51.7676 260.928 52.1875 260.928 52.6484V53.2988H255.959V52.2324H259.404V52.1152C259.396 51.8691 259.35 51.6445 259.264 51.4414C259.178 51.2344 259.045 51.0703 258.865 50.9492C258.686 50.8242 258.453 50.7617 258.168 50.7617C257.938 50.7617 257.736 50.8125 257.564 50.9141C257.396 51.0117 257.256 51.1523 257.143 51.3359C257.033 51.5156 256.951 51.7305 256.896 51.9805C256.842 52.2305 256.814 52.5078 256.814 52.8125V53.0469C256.814 53.3125 256.85 53.5586 256.92 53.7852C256.994 54.0117 257.102 54.209 257.242 54.377C257.387 54.541 257.559 54.6699 257.758 54.7637C257.961 54.8535 258.191 54.8984 258.449 54.8984C258.773 54.8984 259.066 54.8359 259.328 54.7109C259.594 54.582 259.824 54.3926 260.02 54.1426L260.799 54.9512C260.666 55.1465 260.486 55.334 260.26 55.5137C260.037 55.6934 259.768 55.8398 259.451 55.9531C259.135 56.0625 258.77 56.1172 258.355 56.1172ZM263.482 51.0137V56H261.936V49.6602H263.389L263.482 51.0137ZM263.236 52.6016H262.779C262.783 52.1406 262.846 51.7227 262.967 51.3477C263.088 50.9727 263.258 50.6504 263.477 50.3809C263.699 50.1113 263.963 49.9043 264.268 49.7598C264.572 49.6152 264.912 49.543 265.287 49.543C265.592 49.543 265.867 49.5859 266.113 49.6719C266.359 49.7578 266.57 49.8945 266.746 50.082C266.926 50.2695 267.062 50.5156 267.156 50.8203C267.254 51.1211 267.303 51.4922 267.303 51.9336V56H265.744V51.9219C265.744 51.6328 265.701 51.4043 265.615 51.2363C265.533 51.0684 265.412 50.9492 265.252 50.8789C265.096 50.8086 264.902 50.7734 264.672 50.7734C264.434 50.7734 264.225 50.8223 264.045 50.9199C263.869 51.0137 263.721 51.1445 263.6 51.3125C263.482 51.4805 263.393 51.6738 263.33 51.8926C263.268 52.1113 263.236 52.3477 263.236 52.6016ZM272.471 54.6523V47H274.029V56H272.623L272.471 54.6523ZM268.398 52.9062V52.7832C268.398 52.2988 268.453 51.8594 268.562 51.4648C268.676 51.0664 268.84 50.7246 269.055 50.4395C269.27 50.1543 269.529 49.9336 269.834 49.7773C270.143 49.6211 270.492 49.543 270.883 49.543C271.262 49.543 271.592 49.6191 271.873 49.7715C272.158 49.9238 272.4 50.1406 272.6 50.4219C272.803 50.7031 272.965 51.0371 273.086 51.4238C273.207 51.8066 273.295 52.2285 273.35 52.6895V53.0234C273.295 53.4727 273.207 53.8848 273.086 54.2598C272.965 54.6348 272.803 54.9629 272.6 55.2441C272.4 55.5215 272.158 55.7363 271.873 55.8887C271.588 56.041 271.254 56.1172 270.871 56.1172C270.484 56.1172 270.137 56.0371 269.828 55.877C269.523 55.7168 269.264 55.4922 269.049 55.2031C268.838 54.9141 268.676 54.5742 268.562 54.1836C268.453 53.793 268.398 53.3672 268.398 52.9062ZM269.951 52.7832V52.9062C269.951 53.1797 269.975 53.4355 270.021 53.6738C270.068 53.9121 270.145 54.123 270.25 54.3066C270.355 54.4863 270.49 54.627 270.654 54.7285C270.822 54.8301 271.025 54.8809 271.264 54.8809C271.568 54.8809 271.818 54.8145 272.014 54.6816C272.213 54.5449 272.367 54.3594 272.477 54.125C272.586 53.8867 272.656 53.6191 272.688 53.3223V52.4023C272.672 52.168 272.631 51.9512 272.564 51.752C272.502 51.5527 272.412 51.3809 272.295 51.2363C272.182 51.0918 272.041 50.9785 271.873 50.8965C271.705 50.8145 271.506 50.7734 271.275 50.7734C271.037 50.7734 270.834 50.8262 270.666 50.9316C270.498 51.0332 270.361 51.1758 270.256 51.3594C270.15 51.543 270.072 51.7559 270.021 51.998C269.975 52.2402 269.951 52.502 269.951 52.7832ZM246.607 68.7812V70H240.83V68.957L243.602 65.9629C243.891 65.6348 244.119 65.3496 244.287 65.1074C244.455 64.8652 244.574 64.6465 244.645 64.4512C244.719 64.252 244.756 64.0625 244.756 63.8828C244.756 63.6211 244.709 63.3926 244.615 63.1973C244.521 62.998 244.385 62.8438 244.205 62.7344C244.029 62.625 243.812 62.5703 243.555 62.5703C243.27 62.5703 243.025 62.6367 242.822 62.7695C242.623 62.8984 242.471 63.0781 242.365 63.3086C242.264 63.5391 242.213 63.8027 242.213 64.0996H240.66C240.66 63.5957 240.777 63.1367 241.012 62.7227C241.246 62.3047 241.582 61.9707 242.02 61.7207C242.457 61.4707 242.977 61.3457 243.578 61.3457C244.164 61.3457 244.66 61.4434 245.066 61.6387C245.473 61.8301 245.781 62.1035 245.992 62.459C246.203 62.8145 246.309 63.2383 246.309 63.7305C246.309 64.0039 246.264 64.2734 246.174 64.5391C246.084 64.8047 245.957 65.0684 245.793 65.3301C245.633 65.5879 245.441 65.8496 245.219 66.1152C244.996 66.3809 244.748 66.6523 244.475 66.9297L242.811 68.7812H246.607ZM253.463 68.7812V70H247.686V68.957L250.457 65.9629C250.746 65.6348 250.975 65.3496 251.143 65.1074C251.311 64.8652 251.43 64.6465 251.5 64.4512C251.574 64.252 251.611 64.0625 251.611 63.8828C251.611 63.6211 251.564 63.3926 251.471 63.1973C251.377 62.998 251.24 62.8438 251.061 62.7344C250.885 62.625 250.668 62.5703 250.41 62.5703C250.125 62.5703 249.881 62.6367 249.678 62.7695C249.479 62.8984 249.326 63.0781 249.221 63.3086C249.119 63.5391 249.068 63.8027 249.068 64.0996H247.516C247.516 63.5957 247.633 63.1367 247.867 62.7227C248.102 62.3047 248.438 61.9707 248.875 61.7207C249.312 61.4707 249.832 61.3457 250.434 61.3457C251.02 61.3457 251.516 61.4434 251.922 61.6387C252.328 61.8301 252.637 62.1035 252.848 62.459C253.059 62.8145 253.164 63.2383 253.164 63.7305C253.164 64.0039 253.119 64.2734 253.029 64.5391C252.939 64.8047 252.812 65.0684 252.648 65.3301C252.488 65.5879 252.297 65.8496 252.074 66.1152C251.852 66.3809 251.604 66.6523 251.33 66.9297L249.666 68.7812H253.463ZM254.5 63.5605V63.1094C254.5 62.7852 254.57 62.4902 254.711 62.2246C254.852 61.959 255.057 61.7461 255.326 61.5859C255.6 61.4258 255.932 61.3457 256.322 61.3457C256.721 61.3457 257.055 61.4258 257.324 61.5859C257.598 61.7461 257.803 61.959 257.939 62.2246C258.08 62.4902 258.15 62.7852 258.15 63.1094V63.5605C258.15 63.877 258.08 64.168 257.939 64.4336C257.803 64.6992 257.6 64.9121 257.33 65.0723C257.061 65.2324 256.729 65.3125 256.334 65.3125C255.939 65.3125 255.605 65.2324 255.332 65.0723C255.059 64.9121 254.852 64.6992 254.711 64.4336C254.57 64.168 254.5 63.877 254.5 63.5605ZM255.549 63.1094V63.5605C255.549 63.709 255.576 63.8496 255.631 63.9824C255.689 64.1113 255.777 64.2168 255.895 64.2988C256.012 64.3809 256.158 64.4219 256.334 64.4219C256.51 64.4219 256.652 64.3809 256.762 64.2988C256.875 64.2168 256.959 64.1113 257.014 63.9824C257.072 63.8496 257.102 63.709 257.102 63.5605V63.1094C257.102 62.957 257.072 62.8145 257.014 62.6816C256.959 62.5488 256.873 62.4414 256.756 62.3594C256.643 62.2773 256.498 62.2363 256.322 62.2363C256.15 62.2363 256.006 62.2773 255.889 62.3594C255.775 62.4414 255.689 62.5488 255.631 62.6816C255.576 62.8145 255.549 62.957 255.549 63.1094ZM258.596 68.3594V67.9082C258.596 67.5879 258.666 67.2949 258.807 67.0293C258.951 66.7637 259.16 66.5508 259.434 66.3906C259.707 66.2305 260.037 66.1504 260.424 66.1504C260.826 66.1504 261.162 66.2305 261.432 66.3906C261.701 66.5508 261.904 66.7637 262.041 67.0293C262.182 67.2949 262.252 67.5879 262.252 67.9082V68.3594C262.252 68.6797 262.182 68.9727 262.041 69.2383C261.904 69.5039 261.701 69.7168 261.432 69.877C261.166 70.0371 260.836 70.1172 260.441 70.1172C260.047 70.1172 259.711 70.0371 259.434 69.877C259.16 69.7168 258.951 69.5039 258.807 69.2383C258.666 68.9727 258.596 68.6797 258.596 68.3594ZM259.65 67.9082V68.3594C259.65 68.5117 259.682 68.6543 259.744 68.7871C259.807 68.916 259.896 69.0215 260.014 69.1035C260.135 69.1855 260.275 69.2266 260.436 69.2266C260.631 69.2266 260.785 69.1855 260.898 69.1035C261.012 69.0215 261.092 68.916 261.139 68.7871C261.186 68.6543 261.209 68.5117 261.209 68.3594V67.9082C261.209 67.7559 261.18 67.6152 261.121 67.4863C261.062 67.3535 260.975 67.2461 260.857 67.1641C260.744 67.082 260.6 67.041 260.424 67.041C260.252 67.041 260.107 67.082 259.99 67.1641C259.877 67.2461 259.791 67.3535 259.732 67.4863C259.678 67.6152 259.65 67.7559 259.65 67.9082ZM260.811 62.6875L256.645 69.3555L255.877 68.9277L260.043 62.2598L260.811 62.6875Z" fill="#788EFF"/>
<path d="M237.191 255.193H238.803C238.76 255.764 238.602 256.27 238.328 256.711C238.055 257.148 237.674 257.492 237.186 257.742C236.697 257.992 236.105 258.117 235.41 258.117C234.875 258.117 234.393 258.023 233.963 257.836C233.537 257.645 233.172 257.373 232.867 257.021C232.566 256.666 232.336 256.24 232.176 255.744C232.016 255.244 231.936 254.684 231.936 254.062V253.412C231.936 252.791 232.018 252.23 232.182 251.73C232.346 251.23 232.58 250.805 232.885 250.453C233.193 250.098 233.562 249.824 233.992 249.633C234.426 249.441 234.91 249.346 235.445 249.346C236.141 249.346 236.729 249.475 237.209 249.732C237.689 249.986 238.062 250.336 238.328 250.781C238.594 251.227 238.754 251.738 238.809 252.316H237.197C237.166 251.957 237.088 251.652 236.963 251.402C236.842 251.152 236.658 250.963 236.412 250.834C236.17 250.701 235.848 250.635 235.445 250.635C235.133 250.635 234.857 250.693 234.619 250.811C234.385 250.928 234.189 251.104 234.033 251.338C233.877 251.568 233.76 251.857 233.682 252.205C233.604 252.549 233.564 252.947 233.564 253.4V254.062C233.564 254.496 233.6 254.885 233.67 255.229C233.74 255.572 233.85 255.863 233.998 256.102C234.146 256.34 234.338 256.521 234.572 256.646C234.807 256.771 235.086 256.834 235.41 256.834C235.805 256.834 236.125 256.771 236.371 256.646C236.621 256.521 236.811 256.338 236.939 256.096C237.072 255.854 237.156 255.553 237.191 255.193ZM241.574 249V258H240.021V249H241.574ZM242.775 254.895V254.771C242.775 254.307 242.842 253.879 242.975 253.488C243.107 253.094 243.301 252.752 243.555 252.463C243.809 252.174 244.119 251.949 244.486 251.789C244.854 251.625 245.271 251.543 245.74 251.543C246.217 251.543 246.639 251.625 247.006 251.789C247.377 251.949 247.689 252.174 247.943 252.463C248.197 252.752 248.391 253.094 248.523 253.488C248.656 253.879 248.723 254.307 248.723 254.771V254.895C248.723 255.355 248.656 255.783 248.523 256.178C248.391 256.568 248.197 256.91 247.943 257.203C247.689 257.492 247.379 257.717 247.012 257.877C246.645 258.037 246.225 258.117 245.752 258.117C245.283 258.117 244.863 258.037 244.492 257.877C244.121 257.717 243.809 257.492 243.555 257.203C243.301 256.91 243.107 256.568 242.975 256.178C242.842 255.783 242.775 255.355 242.775 254.895ZM244.322 254.771V254.895C244.322 255.172 244.35 255.432 244.404 255.674C244.459 255.916 244.543 256.129 244.656 256.312C244.77 256.496 244.916 256.641 245.096 256.746C245.279 256.848 245.498 256.898 245.752 256.898C246.002 256.898 246.217 256.848 246.396 256.746C246.576 256.641 246.723 256.496 246.836 256.312C246.953 256.129 247.039 255.916 247.094 255.674C247.148 255.432 247.176 255.172 247.176 254.895V254.771C247.176 254.498 247.148 254.242 247.094 254.004C247.039 253.762 246.953 253.549 246.836 253.365C246.723 253.178 246.574 253.031 246.391 252.926C246.211 252.816 245.994 252.762 245.74 252.762C245.49 252.762 245.275 252.816 245.096 252.926C244.916 253.031 244.77 253.178 244.656 253.365C244.543 253.549 244.459 253.762 244.404 254.004C244.35 254.242 244.322 254.498 244.322 254.771ZM253.621 256.494V251.66H255.18V258H253.715L253.621 256.494ZM253.82 255.182L254.301 255.17C254.301 255.596 254.254 255.988 254.16 256.348C254.066 256.707 253.92 257.02 253.721 257.285C253.525 257.547 253.277 257.752 252.977 257.9C252.676 258.045 252.32 258.117 251.91 258.117C251.598 258.117 251.312 258.074 251.055 257.988C250.797 257.898 250.574 257.76 250.387 257.572C250.203 257.381 250.061 257.137 249.959 256.84C249.857 256.539 249.807 256.178 249.807 255.756V251.66H251.354V255.768C251.354 255.979 251.377 256.154 251.424 256.295C251.475 256.436 251.543 256.551 251.629 256.641C251.719 256.727 251.822 256.789 251.939 256.828C252.061 256.863 252.189 256.881 252.326 256.881C252.701 256.881 252.996 256.807 253.211 256.658C253.43 256.506 253.586 256.303 253.68 256.049C253.773 255.791 253.82 255.502 253.82 255.182ZM260.354 256.652V249H261.912V258H260.506L260.354 256.652ZM256.281 254.906V254.783C256.281 254.299 256.336 253.859 256.445 253.465C256.559 253.066 256.723 252.725 256.938 252.439C257.152 252.154 257.412 251.934 257.717 251.777C258.025 251.621 258.375 251.543 258.766 251.543C259.145 251.543 259.475 251.619 259.756 251.771C260.041 251.924 260.283 252.141 260.482 252.422C260.686 252.703 260.848 253.037 260.969 253.424C261.09 253.807 261.178 254.229 261.232 254.689V255.023C261.178 255.473 261.09 255.885 260.969 256.26C260.848 256.635 260.686 256.963 260.482 257.244C260.283 257.521 260.041 257.736 259.756 257.889C259.471 258.041 259.137 258.117 258.754 258.117C258.367 258.117 258.02 258.037 257.711 257.877C257.406 257.717 257.146 257.492 256.932 257.203C256.721 256.914 256.559 256.574 256.445 256.184C256.336 255.793 256.281 255.367 256.281 254.906ZM257.834 254.783V254.906C257.834 255.18 257.857 255.436 257.904 255.674C257.951 255.912 258.027 256.123 258.133 256.307C258.238 256.486 258.373 256.627 258.537 256.729C258.705 256.83 258.908 256.881 259.146 256.881C259.451 256.881 259.701 256.814 259.896 256.682C260.096 256.545 260.25 256.359 260.359 256.125C260.469 255.887 260.539 255.619 260.57 255.322V254.402C260.555 254.168 260.514 253.951 260.447 253.752C260.385 253.553 260.295 253.381 260.178 253.236C260.064 253.092 259.924 252.979 259.756 252.896C259.588 252.814 259.389 252.773 259.158 252.773C258.92 252.773 258.717 252.826 258.549 252.932C258.381 253.033 258.244 253.176 258.139 253.359C258.033 253.543 257.955 253.756 257.904 253.998C257.857 254.24 257.834 254.502 257.834 254.783ZM242.107 270.781V272H236.33V270.957L239.102 267.963C239.391 267.635 239.619 267.35 239.787 267.107C239.955 266.865 240.074 266.646 240.145 266.451C240.219 266.252 240.256 266.062 240.256 265.883C240.256 265.621 240.209 265.393 240.115 265.197C240.021 264.998 239.885 264.844 239.705 264.734C239.529 264.625 239.312 264.57 239.055 264.57C238.77 264.57 238.525 264.637 238.322 264.77C238.123 264.898 237.971 265.078 237.865 265.309C237.764 265.539 237.713 265.803 237.713 266.1H236.16C236.16 265.596 236.277 265.137 236.512 264.723C236.746 264.305 237.082 263.971 237.52 263.721C237.957 263.471 238.477 263.346 239.078 263.346C239.664 263.346 240.16 263.443 240.566 263.639C240.973 263.83 241.281 264.104 241.492 264.459C241.703 264.814 241.809 265.238 241.809 265.73C241.809 266.004 241.764 266.273 241.674 266.539C241.584 266.805 241.457 267.068 241.293 267.33C241.133 267.588 240.941 267.85 240.719 268.115C240.496 268.381 240.248 268.652 239.975 268.93L238.311 270.781H242.107ZM248.846 269.668C248.846 270.199 248.721 270.648 248.471 271.016C248.225 271.379 247.887 271.654 247.457 271.842C247.031 272.025 246.547 272.117 246.004 272.117C245.465 272.117 244.979 272.025 244.545 271.842C244.115 271.654 243.773 271.379 243.52 271.016C243.27 270.648 243.145 270.199 243.145 269.668C243.145 269.312 243.215 268.99 243.355 268.701C243.5 268.412 243.699 268.164 243.953 267.957C244.207 267.746 244.508 267.586 244.855 267.477C245.203 267.363 245.582 267.307 245.992 267.307C246.539 267.307 247.027 267.406 247.457 267.605C247.891 267.801 248.23 268.076 248.477 268.432C248.723 268.783 248.846 269.195 248.846 269.668ZM247.287 269.574C247.287 269.301 247.232 269.064 247.123 268.865C247.018 268.662 246.867 268.506 246.672 268.396C246.477 268.287 246.25 268.232 245.992 268.232C245.73 268.232 245.502 268.287 245.307 268.396C245.115 268.506 244.965 268.662 244.855 268.865C244.75 269.064 244.697 269.301 244.697 269.574C244.697 269.852 244.75 270.09 244.855 270.289C244.965 270.484 245.117 270.635 245.312 270.74C245.508 270.846 245.738 270.898 246.004 270.898C246.27 270.898 246.498 270.846 246.689 270.74C246.881 270.635 247.027 270.484 247.129 270.289C247.234 270.09 247.287 269.852 247.287 269.574ZM248.658 265.719C248.658 266.148 248.545 266.531 248.318 266.867C248.092 267.199 247.777 267.459 247.375 267.646C246.977 267.834 246.52 267.928 246.004 267.928C245.488 267.928 245.027 267.834 244.621 267.646C244.219 267.459 243.902 267.199 243.672 266.867C243.445 266.531 243.332 266.148 243.332 265.719C243.332 265.211 243.447 264.781 243.678 264.43C243.908 264.074 244.223 263.805 244.621 263.621C245.023 263.438 245.48 263.346 245.992 263.346C246.512 263.346 246.973 263.438 247.375 263.621C247.777 263.805 248.092 264.074 248.318 264.43C248.545 264.781 248.658 265.211 248.658 265.719ZM247.111 265.783C247.111 265.541 247.066 265.33 246.977 265.15C246.887 264.967 246.758 264.824 246.59 264.723C246.426 264.621 246.227 264.57 245.992 264.57C245.766 264.57 245.57 264.619 245.406 264.717C245.242 264.814 245.115 264.955 245.025 265.139C244.936 265.318 244.891 265.533 244.891 265.783C244.891 266.029 244.936 266.244 245.025 266.428C245.115 266.611 245.242 266.756 245.406 266.861C245.574 266.963 245.773 267.014 246.004 267.014C246.234 267.014 246.432 266.963 246.596 266.861C246.76 266.756 246.887 266.611 246.977 266.428C247.066 266.244 247.111 266.029 247.111 265.783ZM250 265.561V265.109C250 264.785 250.07 264.49 250.211 264.225C250.352 263.959 250.557 263.746 250.826 263.586C251.1 263.426 251.432 263.346 251.822 263.346C252.221 263.346 252.555 263.426 252.824 263.586C253.098 263.746 253.303 263.959 253.439 264.225C253.58 264.49 253.65 264.785 253.65 265.109V265.561C253.65 265.877 253.58 266.168 253.439 266.434C253.303 266.699 253.1 266.912 252.83 267.072C252.561 267.232 252.229 267.312 251.834 267.312C251.439 267.312 251.105 267.232 250.832 267.072C250.559 266.912 250.352 266.699 250.211 266.434C250.07 266.168 250 265.877 250 265.561ZM251.049 265.109V265.561C251.049 265.709 251.076 265.85 251.131 265.982C251.189 266.111 251.277 266.217 251.395 266.299C251.512 266.381 251.658 266.422 251.834 266.422C252.01 266.422 252.152 266.381 252.262 266.299C252.375 266.217 252.459 266.111 252.514 265.982C252.572 265.85 252.602 265.709 252.602 265.561V265.109C252.602 264.957 252.572 264.814 252.514 264.682C252.459 264.549 252.373 264.441 252.256 264.359C252.143 264.277 251.998 264.236 251.822 264.236C251.65 264.236 251.506 264.277 251.389 264.359C251.275 264.441 251.189 264.549 251.131 264.682C251.076 264.814 251.049 264.957 251.049 265.109ZM254.096 270.359V269.908C254.096 269.588 254.166 269.295 254.307 269.029C254.451 268.764 254.66 268.551 254.934 268.391C255.207 268.23 255.537 268.15 255.924 268.15C256.326 268.15 256.662 268.23 256.932 268.391C257.201 268.551 257.404 268.764 257.541 269.029C257.682 269.295 257.752 269.588 257.752 269.908V270.359C257.752 270.68 257.682 270.973 257.541 271.238C257.404 271.504 257.201 271.717 256.932 271.877C256.666 272.037 256.336 272.117 255.941 272.117C255.547 272.117 255.211 272.037 254.934 271.877C254.66 271.717 254.451 271.504 254.307 271.238C254.166 270.973 254.096 270.68 254.096 270.359ZM255.15 269.908V270.359C255.15 270.512 255.182 270.654 255.244 270.787C255.307 270.916 255.396 271.021 255.514 271.104C255.635 271.186 255.775 271.227 255.936 271.227C256.131 271.227 256.285 271.186 256.398 271.104C256.512 271.021 256.592 270.916 256.639 270.787C256.686 270.654 256.709 270.512 256.709 270.359V269.908C256.709 269.756 256.68 269.615 256.621 269.486C256.562 269.354 256.475 269.246 256.357 269.164C256.244 269.082 256.1 269.041 255.924 269.041C255.752 269.041 255.607 269.082 255.49 269.164C255.377 269.246 255.291 269.354 255.232 269.486C255.178 269.615 255.15 269.756 255.15 269.908ZM256.311 264.688L252.145 271.355L251.377 270.928L255.543 264.26L256.311 264.688Z" fill="#3455FF"/>
<path d="M37.8965 44.4688V53H36.2852V44.4688H37.8965ZM41.3359 48.1543V49.4258H37.4746V48.1543H41.3359ZM41.7871 44.4688V45.7402H37.4746V44.4688H41.7871ZM44.1602 47.9551V53H42.6133V46.6602H44.0781L44.1602 47.9551ZM46.0879 46.6191L46.0645 48.0605C45.9785 48.0449 45.8809 48.0332 45.7715 48.0254C45.666 48.0176 45.5664 48.0137 45.4727 48.0137C45.2344 48.0137 45.0254 48.0469 44.8457 48.1133C44.666 48.1758 44.5156 48.2676 44.3945 48.3887C44.2773 48.5098 44.1875 48.6582 44.125 48.834C44.0625 49.0059 44.0273 49.2012 44.0195 49.4199L43.6855 49.3789C43.6855 48.9766 43.7266 48.6035 43.8086 48.2598C43.8906 47.916 44.0098 47.6152 44.166 47.3574C44.3223 47.0996 44.5176 46.9004 44.752 46.7598C44.9902 46.6152 45.2637 46.543 45.5723 46.543C45.6582 46.543 45.75 46.5508 45.8477 46.5664C45.9492 46.5781 46.0293 46.5957 46.0879 46.6191ZM46.498 49.8945V49.7715C46.498 49.3066 46.5645 48.8789 46.6973 48.4883C46.8301 48.0938 47.0234 47.752 47.2773 47.4629C47.5312 47.1738 47.8418 46.9492 48.209 46.7891C48.5762 46.625 48.9941 46.543 49.4629 46.543C49.9395 46.543 50.3613 46.625 50.7285 46.7891C51.0996 46.9492 51.4121 47.1738 51.666 47.4629C51.9199 47.752 52.1133 48.0938 52.2461 48.4883C52.3789 48.8789 52.4453 49.3066 52.4453 49.7715V49.8945C52.4453 50.3555 52.3789 50.7832 52.2461 51.1777C52.1133 51.5684 51.9199 51.9102 51.666 52.2031C51.4121 52.4922 51.1016 52.7168 50.7344 52.877C50.3672 53.0371 49.9473 53.1172 49.4746 53.1172C49.0059 53.1172 48.5859 53.0371 48.2148 52.877C47.8438 52.7168 47.5312 52.4922 47.2773 52.2031C47.0234 51.9102 46.8301 51.5684 46.6973 51.1777C46.5645 50.7832 46.498 50.3555 46.498 49.8945ZM48.0449 49.7715V49.8945C48.0449 50.1719 48.0723 50.4316 48.127 50.6738C48.1816 50.916 48.2656 51.1289 48.3789 51.3125C48.4922 51.4961 48.6387 51.6406 48.8184 51.7461C49.002 51.8477 49.2207 51.8984 49.4746 51.8984C49.7246 51.8984 49.9395 51.8477 50.1191 51.7461C50.2988 51.6406 50.4453 51.4961 50.5586 51.3125C50.6758 51.1289 50.7617 50.916 50.8164 50.6738C50.8711 50.4316 50.8984 50.1719 50.8984 49.8945V49.7715C50.8984 49.498 50.8711 49.2422 50.8164 49.0039C50.7617 48.7617 50.6758 48.5488 50.5586 48.3652C50.4453 48.1777 50.2969 48.0312 50.1133 47.9258C49.9336 47.8164 49.7168 47.7617 49.4629 47.7617C49.2129 47.7617 48.998 47.8164 48.8184 47.9258C48.6387 48.0312 48.4922 48.1777 48.3789 48.3652C48.2656 48.5488 48.1816 48.7617 48.127 49.0039C48.0723 49.2422 48.0449 49.498 48.0449 49.7715ZM55.0879 48.0137V53H53.541V46.6602H54.9941L55.0879 48.0137ZM54.8418 49.6016H54.3848C54.3887 49.1406 54.4512 48.7227 54.5723 48.3477C54.6934 47.9727 54.8633 47.6504 55.082 47.3809C55.3047 47.1113 55.5684 46.9043 55.873 46.7598C56.1777 46.6152 56.5176 46.543 56.8926 46.543C57.1973 46.543 57.4727 46.5859 57.7188 46.6719C57.9648 46.7578 58.1758 46.8945 58.3516 47.082C58.5312 47.2695 58.668 47.5156 58.7617 47.8203C58.8594 48.1211 58.9082 48.4922 58.9082 48.9336V53H57.3496V48.9219C57.3496 48.6328 57.3066 48.4043 57.2207 48.2363C57.1387 48.0684 57.0176 47.9492 56.8574 47.8789C56.7012 47.8086 56.5078 47.7734 56.2773 47.7734C56.0391 47.7734 55.8301 47.8223 55.6504 47.9199C55.4746 48.0137 55.3262 48.1445 55.2051 48.3125C55.0879 48.4805 54.998 48.6738 54.9355 48.8926C54.873 49.1113 54.8418 49.3477 54.8418 49.6016ZM63.2734 46.6602V47.7734H59.6406V46.6602H63.2734ZM60.6133 45.1016H62.166V51.1719C62.166 51.3594 62.1914 51.5039 62.2422 51.6055C62.293 51.707 62.3691 51.7754 62.4707 51.8105C62.5723 51.8457 62.6934 51.8633 62.834 51.8633C62.9355 51.8633 63.0293 51.8574 63.1152 51.8457C63.2012 51.834 63.2734 51.8223 63.332 51.8105L63.3379 52.9707C63.209 53.0137 63.0625 53.0488 62.8984 53.0762C62.7383 53.1035 62.5566 53.1172 62.3535 53.1172C62.0059 53.1172 61.7012 53.0586 61.4395 52.9414C61.1777 52.8203 60.9746 52.627 60.8301 52.3613C60.6855 52.0918 60.6133 51.7363 60.6133 51.2949V45.1016ZM67.1523 53.1172C66.6719 53.1172 66.2402 53.0391 65.8574 52.8828C65.4746 52.7266 65.1484 52.5098 64.8789 52.2324C64.6133 51.9512 64.4082 51.625 64.2637 51.2539C64.123 50.8789 64.0527 50.4766 64.0527 50.0469V49.8125C64.0527 49.3242 64.123 48.8809 64.2637 48.4824C64.4043 48.0801 64.6035 47.7344 64.8613 47.4453C65.1191 47.1562 65.4277 46.9336 65.7871 46.7773C66.1465 46.6211 66.543 46.543 66.9766 46.543C67.4258 46.543 67.8223 46.6191 68.166 46.7715C68.5098 46.9199 68.7969 47.1309 69.0273 47.4043C69.2578 47.6777 69.4316 48.0059 69.5488 48.3887C69.666 48.7676 69.7246 49.1875 69.7246 49.6484V50.2988H64.7559V49.2324H68.2012V49.1152C68.1934 48.8691 68.1465 48.6445 68.0605 48.4414C67.9746 48.2344 67.8418 48.0703 67.6621 47.9492C67.4824 47.8242 67.25 47.7617 66.9648 47.7617C66.7344 47.7617 66.5332 47.8125 66.3613 47.9141C66.1934 48.0117 66.0527 48.1523 65.9395 48.3359C65.8301 48.5156 65.748 48.7305 65.6934 48.9805C65.6387 49.2305 65.6113 49.5078 65.6113 49.8125V50.0469C65.6113 50.3125 65.6465 50.5586 65.7168 50.7852C65.791 51.0117 65.8984 51.209 66.0391 51.377C66.1836 51.541 66.3555 51.6699 66.5547 51.7637C66.7578 51.8535 66.9883 51.8984 67.2461 51.8984C67.5703 51.8984 67.8633 51.8359 68.125 51.7109C68.3906 51.582 68.6211 51.3926 68.8164 51.1426L69.5957 51.9512C69.4629 52.1465 69.2832 52.334 69.0566 52.5137C68.834 52.6934 68.5645 52.8398 68.248 52.9531C67.9316 53.0625 67.5664 53.1172 67.1523 53.1172ZM72.2793 48.0137V53H70.7324V46.6602H72.1855L72.2793 48.0137ZM72.0332 49.6016H71.5762C71.5801 49.1406 71.6426 48.7227 71.7637 48.3477C71.8848 47.9727 72.0547 47.6504 72.2734 47.3809C72.4961 47.1113 72.7598 46.9043 73.0645 46.7598C73.3691 46.6152 73.709 46.543 74.084 46.543C74.3887 46.543 74.6641 46.5859 74.9102 46.6719C75.1562 46.7578 75.3672 46.8945 75.543 47.082C75.7227 47.2695 75.8594 47.5156 75.9531 47.8203C76.0508 48.1211 76.0996 48.4922 76.0996 48.9336V53H74.541V48.9219C74.541 48.6328 74.498 48.4043 74.4121 48.2363C74.3301 48.0684 74.209 47.9492 74.0488 47.8789C73.8926 47.8086 73.6992 47.7734 73.4688 47.7734C73.2305 47.7734 73.0215 47.8223 72.8418 47.9199C72.666 48.0137 72.5176 48.1445 72.3965 48.3125C72.2793 48.4805 72.1895 48.6738 72.127 48.8926C72.0645 49.1113 72.0332 49.3477 72.0332 49.6016ZM81.2676 51.6523V44H82.8262V53H81.4199L81.2676 51.6523ZM77.1953 49.9062V49.7832C77.1953 49.2988 77.25 48.8594 77.3594 48.4648C77.4727 48.0664 77.6367 47.7246 77.8516 47.4395C78.0664 47.1543 78.3262 46.9336 78.6309 46.7773C78.9395 46.6211 79.2891 46.543 79.6797 46.543C80.0586 46.543 80.3887 46.6191 80.6699 46.7715C80.9551 46.9238 81.1973 47.1406 81.3965 47.4219C81.5996 47.7031 81.7617 48.0371 81.8828 48.4238C82.0039 48.8066 82.0918 49.2285 82.1465 49.6895V50.0234C82.0918 50.4727 82.0039 50.8848 81.8828 51.2598C81.7617 51.6348 81.5996 51.9629 81.3965 52.2441C81.1973 52.5215 80.9551 52.7363 80.6699 52.8887C80.3848 53.041 80.0508 53.1172 79.668 53.1172C79.2812 53.1172 78.9336 53.0371 78.625 52.877C78.3203 52.7168 78.0605 52.4922 77.8457 52.2031C77.6348 51.9141 77.4727 51.5742 77.3594 51.1836C77.25 50.793 77.1953 50.3672 77.1953 49.9062ZM78.748 49.7832V49.9062C78.748 50.1797 78.7715 50.4355 78.8184 50.6738C78.8652 50.9121 78.9414 51.123 79.0469 51.3066C79.1523 51.4863 79.2871 51.627 79.4512 51.7285C79.6191 51.8301 79.8223 51.8809 80.0605 51.8809C80.3652 51.8809 80.6152 51.8145 80.8105 51.6816C81.0098 51.5449 81.1641 51.3594 81.2734 51.125C81.3828 50.8867 81.4531 50.6191 81.4844 50.3223V49.4023C81.4688 49.168 81.4277 48.9512 81.3613 48.752C81.2988 48.5527 81.209 48.3809 81.0918 48.2363C80.9785 48.0918 80.8379 47.9785 80.6699 47.8965C80.502 47.8145 80.3027 47.7734 80.0723 47.7734C79.834 47.7734 79.6309 47.8262 79.4629 47.9316C79.2949 48.0332 79.1582 48.1758 79.0527 48.3594C78.9473 48.543 78.8691 48.7559 78.8184 48.998C78.7715 49.2402 78.748 49.502 78.748 49.7832ZM50.3652 63.0742L49.1289 62.7754L49.6035 58.4688H54.2969V59.752H50.8867L50.6641 61.7441C50.7852 61.6699 50.9609 61.5957 51.1914 61.5215C51.4258 61.4434 51.6895 61.4043 51.9824 61.4043C52.3887 61.4043 52.752 61.4707 53.0723 61.6035C53.3926 61.7324 53.6641 61.9199 53.8867 62.166C54.1133 62.4121 54.2832 62.7129 54.3965 63.0684C54.5137 63.4199 54.5723 63.8184 54.5723 64.2637C54.5723 64.6543 54.5137 65.0215 54.3965 65.3652C54.2832 65.7051 54.1094 66.0078 53.875 66.2734C53.6406 66.5352 53.3457 66.7422 52.9902 66.8945C52.6348 67.043 52.2168 67.1172 51.7363 67.1172C51.373 67.1172 51.0234 67.0645 50.6875 66.959C50.3555 66.8496 50.0566 66.6914 49.791 66.4844C49.5254 66.2734 49.3125 66.0156 49.1523 65.7109C48.9961 65.4062 48.9102 65.0566 48.8945 64.6621H50.4238C50.4512 64.9238 50.5215 65.1465 50.6348 65.3301C50.748 65.5137 50.8965 65.6543 51.0801 65.752C51.2676 65.8496 51.4844 65.8984 51.7305 65.8984C51.9531 65.8984 52.1445 65.8574 52.3047 65.7754C52.4688 65.6895 52.6035 65.5703 52.709 65.418C52.8145 65.2656 52.8926 65.0859 52.9434 64.8789C52.9941 64.6719 53.0195 64.4453 53.0195 64.1992C53.0195 63.9609 52.9902 63.7441 52.9316 63.5488C52.873 63.3496 52.7832 63.1777 52.6621 63.0332C52.541 62.8887 52.3887 62.7773 52.2051 62.6992C52.0254 62.6211 51.8145 62.582 51.5723 62.582C51.248 62.582 50.998 62.6309 50.8223 62.7285C50.6504 62.8262 50.498 62.9414 50.3652 63.0742ZM61.334 62.002V63.4375C61.334 64.0938 61.2676 64.6543 61.1348 65.1191C61.002 65.584 60.8105 65.9648 60.5605 66.2617C60.3105 66.5547 60.0117 66.7715 59.6641 66.9121C59.3164 67.0488 58.9297 67.1172 58.5039 67.1172C58.1641 67.1172 57.8477 67.0742 57.5547 66.9883C57.2617 66.8984 56.998 66.7617 56.7637 66.5781C56.5332 66.3906 56.334 66.1523 56.166 65.8633C56.002 65.5742 55.875 65.2285 55.7852 64.8262C55.6992 64.4238 55.6562 63.9609 55.6562 63.4375V62.002C55.6562 61.3457 55.7227 60.7871 55.8555 60.3262C55.9922 59.8652 56.1855 59.4883 56.4355 59.1953C56.6855 58.9023 56.9844 58.6895 57.332 58.5566C57.6797 58.4199 58.0664 58.3516 58.4922 58.3516C58.8359 58.3516 59.1523 58.3945 59.4414 58.4805C59.7344 58.5664 59.9961 58.7012 60.2266 58.8848C60.4609 59.0645 60.6602 59.2988 60.8242 59.5879C60.9883 59.873 61.1133 60.2168 61.1992 60.6191C61.2891 61.0176 61.334 61.4785 61.334 62.002ZM59.7871 63.6484V61.7852C59.7871 61.457 59.7676 61.1719 59.7285 60.9297C59.6934 60.6836 59.6406 60.4746 59.5703 60.3027C59.5 60.1309 59.4121 59.9922 59.3066 59.8867C59.2012 59.7773 59.0801 59.6973 58.9434 59.6465C58.8066 59.5957 58.6562 59.5703 58.4922 59.5703C58.2891 59.5703 58.1074 59.6113 57.9473 59.6934C57.7871 59.7715 57.6523 59.8965 57.543 60.0684C57.4336 60.2402 57.3496 60.4688 57.291 60.7539C57.2363 61.0352 57.209 61.3789 57.209 61.7852V63.6484C57.209 63.9766 57.2266 64.2637 57.2617 64.5098C57.3008 64.7559 57.3555 64.9668 57.4258 65.1426C57.5 65.3184 57.5879 65.4629 57.6895 65.5762C57.7949 65.6855 57.916 65.7676 58.0527 65.8223C58.1895 65.873 58.3398 65.8984 58.5039 65.8984C58.7109 65.8984 58.8926 65.8574 59.0488 65.7754C59.209 65.6934 59.3438 65.5645 59.4531 65.3887C59.5625 65.209 59.6445 64.9766 59.6992 64.6914C59.7578 64.4023 59.7871 64.0547 59.7871 63.6484ZM62.5 60.5605V60.1094C62.5 59.7852 62.5703 59.4902 62.7109 59.2246C62.8516 58.959 63.0566 58.7461 63.3262 58.5859C63.5996 58.4258 63.9316 58.3457 64.3223 58.3457C64.7207 58.3457 65.0547 58.4258 65.3242 58.5859C65.5977 58.7461 65.8027 58.959 65.9395 59.2246C66.0801 59.4902 66.1504 59.7852 66.1504 60.1094V60.5605C66.1504 60.877 66.0801 61.168 65.9395 61.4336C65.8027 61.6992 65.5996 61.9121 65.3301 62.0723C65.0605 62.2324 64.7285 62.3125 64.334 62.3125C63.9395 62.3125 63.6055 62.2324 63.332 62.0723C63.0586 61.9121 62.8516 61.6992 62.7109 61.4336C62.5703 61.168 62.5 60.877 62.5 60.5605ZM63.5488 60.1094V60.5605C63.5488 60.709 63.5762 60.8496 63.6309 60.9824C63.6895 61.1113 63.7773 61.2168 63.8945 61.2988C64.0117 61.3809 64.1582 61.4219 64.334 61.4219C64.5098 61.4219 64.6523 61.3809 64.7617 61.2988C64.875 61.2168 64.959 61.1113 65.0137 60.9824C65.0723 60.8496 65.1016 60.709 65.1016 60.5605V60.1094C65.1016 59.957 65.0723 59.8145 65.0137 59.6816C64.959 59.5488 64.873 59.4414 64.7559 59.3594C64.6426 59.2773 64.498 59.2363 64.3223 59.2363C64.1504 59.2363 64.0059 59.2773 63.8887 59.3594C63.7754 59.4414 63.6895 59.5488 63.6309 59.6816C63.5762 59.8145 63.5488 59.957 63.5488 60.1094ZM66.5957 65.3594V64.9082C66.5957 64.5879 66.666 64.2949 66.8066 64.0293C66.9512 63.7637 67.1602 63.5508 67.4336 63.3906C67.707 63.2305 68.0371 63.1504 68.4238 63.1504C68.8262 63.1504 69.1621 63.2305 69.4316 63.3906C69.7012 63.5508 69.9043 63.7637 70.041 64.0293C70.1816 64.2949 70.252 64.5879 70.252 64.9082V65.3594C70.252 65.6797 70.1816 65.9727 70.041 66.2383C69.9043 66.5039 69.7012 66.7168 69.4316 66.877C69.166 67.0371 68.8359 67.1172 68.4414 67.1172C68.0469 67.1172 67.7109 67.0371 67.4336 66.877C67.1602 66.7168 66.9512 66.5039 66.8066 66.2383C66.666 65.9727 66.5957 65.6797 66.5957 65.3594ZM67.6504 64.9082V65.3594C67.6504 65.5117 67.6816 65.6543 67.7441 65.7871C67.8066 65.916 67.8965 66.0215 68.0137 66.1035C68.1348 66.1855 68.2754 66.2266 68.4355 66.2266C68.6309 66.2266 68.7852 66.1855 68.8984 66.1035C69.0117 66.0215 69.0918 65.916 69.1387 65.7871C69.1855 65.6543 69.209 65.5117 69.209 65.3594V64.9082C69.209 64.7559 69.1797 64.6152 69.1211 64.4863C69.0625 64.3535 68.9746 64.2461 68.8574 64.1641C68.7441 64.082 68.5996 64.041 68.4238 64.041C68.252 64.041 68.1074 64.082 67.9902 64.1641C67.877 64.2461 67.791 64.3535 67.7324 64.4863C67.6777 64.6152 67.6504 64.7559 67.6504 64.9082ZM68.8105 59.6875L64.6445 66.3555L63.877 65.9277L68.043 59.2598L68.8105 59.6875Z" fill="#2339AA"/>
</svg>
