<svg width="18" height="17" viewBox="0 0 18 17" fill="none" xmlns="http://www.w3.org/2000/svg">
<path d="M9 3.14969C9.14918 3.14969 9.29226 3.21973 9.39775 3.34441C9.50323 3.46909 9.5625 3.63819 9.5625 3.81451V5.80897C9.5625 5.98529 9.50323 6.15439 9.39775 6.27907C9.29226 6.40375 9.14918 6.47379 9 6.47379C8.85081 6.47379 8.70774 6.40375 8.60225 6.27907C8.49676 6.15439 8.4375 5.98529 8.4375 5.80897V3.81451C8.4375 3.63819 8.49676 3.46909 8.60225 3.34441C8.70774 3.21973 8.85081 3.14969 9 3.14969V3.14969ZM4.1985 5.45262C4.30398 5.32799 4.44703 5.25797 4.59619 5.25797C4.74534 5.25797 4.88839 5.32799 4.99387 5.45262L6.02325 6.66792C6.07555 6.72973 6.11703 6.80311 6.14534 6.88387C6.17364 6.96463 6.18821 7.05119 6.18821 7.13861C6.18821 7.22602 6.17364 7.31258 6.14534 7.39335C6.11703 7.47411 6.07555 7.54749 6.02325 7.6093C5.97095 7.67111 5.90886 7.72015 5.84053 7.7536C5.7722 7.78705 5.69896 7.80427 5.625 7.80427C5.55104 7.80427 5.4778 7.78705 5.40947 7.7536C5.34114 7.72015 5.27905 7.67111 5.22675 7.6093L4.1985 6.39268C4.09305 6.26801 4.03381 6.09894 4.03381 5.92265C4.03381 5.74637 4.09305 5.5773 4.1985 5.45262V5.45262ZM2.25 11.1275C2.25 10.9512 2.30926 10.7821 2.41475 10.6574C2.52024 10.5328 2.66332 10.4627 2.8125 10.4627H4.59675C4.74593 10.4627 4.88901 10.5328 4.9945 10.6574C5.09999 10.7821 5.15925 10.9512 5.15925 11.1275C5.15925 11.3038 5.09999 11.4729 4.9945 11.5976C4.88901 11.7223 4.74593 11.7923 4.59675 11.7923H2.8125C2.66332 11.7923 2.52024 11.7223 2.41475 11.5976C2.30926 11.4729 2.25 11.3038 2.25 11.1275ZM12.9375 11.1275C12.9375 10.9512 12.9968 10.7821 13.1022 10.6574C13.2077 10.5328 13.3508 10.4627 13.5 10.4627H15.1875C15.3367 10.4627 15.4798 10.5328 15.5852 10.6574C15.6907 10.7821 15.75 10.9512 15.75 11.1275C15.75 11.3038 15.6907 11.4729 15.5852 11.5976C15.4798 11.7223 15.3367 11.7923 15.1875 11.7923H13.5C13.3508 11.7923 13.2077 11.7223 13.1022 11.5976C12.9968 11.4729 12.9375 11.3038 12.9375 11.1275ZM13.7857 5.48188C13.7078 5.39025 13.6036 5.33664 13.4937 5.33171C13.3839 5.32678 13.2765 5.3709 13.1929 5.45528L8.49037 10.2101C8.38081 10.3192 8.29184 10.4543 8.22922 10.6066C8.1666 10.7589 8.13173 10.925 8.12685 11.0942C8.12198 11.2635 8.14721 11.432 8.20092 11.589C8.25463 11.746 8.33562 11.8879 8.43866 12.0056C8.54169 12.1232 8.66447 12.214 8.79906 12.272C8.93365 12.3301 9.07705 12.3541 9.21998 12.3425C9.36292 12.331 9.5022 12.2841 9.62884 12.2049C9.75547 12.1257 9.86663 12.0159 9.95512 11.8828L13.8184 6.1693C13.8856 6.06986 13.9194 5.94463 13.9134 5.81756C13.9074 5.69048 13.8619 5.5705 13.7857 5.48055V5.48188Z" fill="black"/>
<path fill-rule="evenodd" clip-rule="evenodd" d="M5.97131e-06 11.1276C0.00118201 9.5796 0.2882 8.05059 0.841024 6.64728C1.39385 5.24397 2.19915 4.00017 3.20073 3.00271C4.2023 2.00526 5.376 1.27819 6.63988 0.872257C7.90377 0.466326 9.2274 0.391317 10.5183 0.652467C11.8093 0.913617 13.0365 1.50463 14.1142 2.38425C15.1919 3.26387 16.0942 4.4109 16.7581 5.74527C17.422 7.07963 17.8315 8.56917 17.9579 10.1099C18.0844 11.6506 17.9248 13.2054 17.4904 14.6657C16.9931 16.3318 15.4148 16.7958 14.1919 16.3278C12.7226 15.7654 10.6594 15.1165 9 15.1165C7.34175 15.1165 5.27625 15.7654 3.80813 16.3278C2.58526 16.7958 1.00688 16.3318 0.509631 14.6657C0.171166 13.5291 -0.00116935 12.3326 5.97131e-06 11.1276V11.1276ZM9 1.82009C7.74042 1.8197 6.49914 2.17642 5.38033 2.86031C4.26152 3.54419 3.29783 4.53529 2.57014 5.75042C1.84245 6.96555 1.37199 8.36925 1.19825 9.84372C1.02451 11.3182 1.15255 12.8204 1.57163 14.2243C1.80001 14.9888 2.61001 15.3891 3.46163 15.062C4.94663 14.4955 7.15275 13.7868 9 13.7868C10.8473 13.7868 13.0545 14.4942 14.5384 15.0633C15.39 15.3891 16.2 14.9888 16.4284 14.2243C16.8475 12.8204 16.9755 11.3182 16.8018 9.84372C16.628 8.36925 16.1576 6.96555 15.4299 5.75042C14.7022 4.53529 13.7385 3.54419 12.6197 2.86031C11.5009 2.17642 10.2596 1.8197 9 1.82009V1.82009Z" fill="black"/>
</svg>
