<svg width="18" height="17" viewBox="0 0 18 17" fill="none" xmlns="http://www.w3.org/2000/svg">
<path d="M17.8125 14.8636H1.6875V0.681818C1.6875 0.581818 1.60313 0.5 1.5 0.5H0.1875C0.084375 0.5 0 0.581818 0 0.681818V16.3182C0 16.4182 0.084375 16.5 0.1875 16.5H17.8125C17.9156 16.5 18 16.4182 18 16.3182V15.0455C18 14.9455 17.9156 14.8636 17.8125 14.8636ZM3.75 13.0455H5.0625C5.16563 13.0455 5.25 12.9636 5.25 12.8636V9.59091C5.25 9.49091 5.16563 9.40909 5.0625 9.40909H3.75C3.64687 9.40909 3.5625 9.49091 3.5625 9.59091V12.8636C3.5625 12.9636 3.64687 13.0455 3.75 13.0455ZM7.3125 13.0455H8.625C8.72813 13.0455 8.8125 12.9636 8.8125 12.8636V5.59091C8.8125 5.49091 8.72813 5.40909 8.625 5.40909H7.3125C7.20937 5.40909 7.125 5.49091 7.125 5.59091V12.8636C7.125 12.9636 7.20937 13.0455 7.3125 13.0455ZM10.875 13.0455H12.1875C12.2906 13.0455 12.375 12.9636 12.375 12.8636V7.36364C12.375 7.26364 12.2906 7.18182 12.1875 7.18182H10.875C10.7719 7.18182 10.6875 7.26364 10.6875 7.36364V12.8636C10.6875 12.9636 10.7719 13.0455 10.875 13.0455ZM14.4375 13.0455H15.75C15.8531 13.0455 15.9375 12.9636 15.9375 12.8636V3.77273C15.9375 3.67273 15.8531 3.59091 15.75 3.59091H14.4375C14.3344 3.59091 14.25 3.67273 14.25 3.77273V12.8636C14.25 12.9636 14.3344 13.0455 14.4375 13.0455Z" fill="black"/>
</svg>
