<svg width="133" height="50" viewBox="0 0 133 50" fill="none" xmlns="http://www.w3.org/2000/svg">
<path d="M5.04 39.8191C4.74667 40.0539 4.43307 40.0601 4.0992 39.8379C3.7664 39.6166 3.66667 39.3234 3.8 38.9582L4.96 35.358L2.04 33.3231C1.72 33.0883 1.62667 32.7945 1.76 32.4418C1.89333 32.0901 2.14667 31.9143 2.52 31.9143H6.08L7.2 28.3141L1.52 25.0269C1.04 24.74 0.666667 24.3617 0.4 23.8921C0.133333 23.4225 0 22.8877 0 22.2877V13.1306C0 12.2697 0.3136 11.5324 0.9408 10.9188C1.56693 10.3063 2.32 10 3.2 10H12.8C13.68 10 14.4336 10.3063 15.0608 10.9188C15.6869 11.5324 16 12.2697 16 13.1306V22.2877C16 22.8877 15.8667 23.4225 15.6 23.8921C15.3333 24.3617 14.96 24.74 14.48 25.0269L8.8 28.3141L9.92 31.9143H13.48C13.8533 31.9143 14.1067 32.0901 14.24 32.4418C14.3733 32.7945 14.28 33.0883 13.96 33.3231L11.04 35.358L12.2 38.9582C12.3333 39.3234 12.2336 39.6166 11.9008 39.8379C11.5669 40.0601 11.2533 40.0539 10.96 39.8191L8 37.6276L5.04 39.8191ZM3.2 13.1306V22.2877L6.4 24.166V13.1306H3.2ZM12.8 13.1306H9.6V24.166L12.8 22.2877V13.1306Z" fill="url(#paint0_linear_8_16)"/>
<path d="M35.3395 21.4531C35.2732 20.8329 34.9938 20.3499 34.5014 20.0043C34.0137 19.6586 33.3793 19.4858 32.598 19.4858C32.0488 19.4858 31.5777 19.5687 31.1847 19.7344C30.7917 19.9001 30.491 20.125 30.2827 20.4091C30.0743 20.6932 29.9678 21.0175 29.9631 21.3821C29.9631 21.6851 30.0317 21.9479 30.169 22.1705C30.3111 22.393 30.5028 22.5824 30.7443 22.7386C30.9858 22.8902 31.2533 23.018 31.5469 23.1222C31.8404 23.2263 32.1364 23.3139 32.4347 23.3849L33.7983 23.7259C34.3475 23.8537 34.8755 24.0265 35.3821 24.2443C35.8935 24.4621 36.3504 24.7367 36.7528 25.0682C37.16 25.3996 37.482 25.7997 37.7188 26.2685C37.9555 26.7372 38.0739 27.2865 38.0739 27.9162C38.0739 28.7685 37.8561 29.5189 37.4205 30.1676C36.9848 30.8116 36.3551 31.3158 35.5312 31.6804C34.7121 32.0402 33.7202 32.2202 32.5554 32.2202C31.4238 32.2202 30.4413 32.045 29.608 31.6946C28.7794 31.3442 28.1307 30.8329 27.6619 30.1605C27.1979 29.4882 26.947 28.669 26.9091 27.7031H29.5014C29.5393 28.2098 29.6955 28.6312 29.9702 28.9673C30.2448 29.3035 30.6023 29.5545 31.0426 29.7202C31.4877 29.8859 31.9848 29.9688 32.5341 29.9688C33.107 29.9688 33.6089 29.8835 34.0398 29.7131C34.4754 29.5379 34.8163 29.2964 35.0625 28.9886C35.3087 28.6761 35.4342 28.3116 35.4389 27.8949C35.4342 27.5161 35.3229 27.2036 35.1051 26.9574C34.8873 26.7064 34.5819 26.4981 34.1889 26.3324C33.8007 26.1619 33.3461 26.0104 32.8253 25.8778L31.1705 25.4517C29.9725 25.1439 29.0256 24.6776 28.3295 24.0526C27.6383 23.4228 27.2926 22.5871 27.2926 21.5455C27.2926 20.6884 27.5246 19.938 27.9886 19.294C28.4574 18.6501 29.0942 18.1506 29.8991 17.7955C30.7041 17.4356 31.6155 17.2557 32.6335 17.2557C33.6657 17.2557 34.5701 17.4356 35.3466 17.7955C36.1278 18.1506 36.741 18.6454 37.1861 19.2798C37.6312 19.9096 37.8608 20.634 37.875 21.4531H35.3395ZM45.0678 32.2131C43.9788 32.2131 43.0437 31.974 42.2624 31.4957C41.4859 31.0175 40.887 30.357 40.4656 29.5142C40.0489 28.6667 39.8406 27.6913 39.8406 26.5881C39.8406 25.4801 40.0536 24.5024 40.4798 23.6548C40.9059 22.8026 41.5072 22.1397 42.2837 21.6662C43.065 21.188 43.9883 20.9489 45.0536 20.9489C45.939 20.9489 46.7227 21.1122 47.4045 21.4389C48.091 21.7609 48.6379 22.2178 49.0451 22.8097C49.4523 23.3968 49.6843 24.0833 49.7411 24.8693H47.2837C47.1843 24.3437 46.9476 23.9058 46.5735 23.5554C46.2042 23.2003 45.7094 23.0227 45.0891 23.0227C44.5636 23.0227 44.1019 23.1648 43.7042 23.4489C43.3065 23.7282 42.9963 24.1307 42.7738 24.6562C42.556 25.1818 42.4471 25.8116 42.4471 26.5455C42.4471 27.2888 42.556 27.928 42.7738 28.4631C42.9916 28.9934 43.297 29.4029 43.69 29.6918C44.0877 29.9759 44.5541 30.1179 45.0891 30.1179C45.4679 30.1179 45.8065 30.0469 46.1048 29.9048C46.4078 29.758 46.6611 29.5473 46.8647 29.2727C47.0683 28.9981 47.208 28.6643 47.2837 28.2713H49.7411C49.6796 29.0431 49.4523 29.7273 49.0593 30.3239C48.6663 30.9157 48.1313 31.3797 47.4542 31.7159C46.7771 32.0473 45.9817 32.2131 45.0678 32.2131ZM54.4233 25.608V32H51.8523V17.4545H54.3665V22.9446H54.4943C54.75 22.3291 55.1454 21.8437 55.6804 21.4886C56.2202 21.1288 56.9067 20.9489 57.7401 20.9489C58.4976 20.9489 59.1581 21.1075 59.7216 21.4247C60.285 21.742 60.7206 22.206 61.0284 22.8168C61.3409 23.4276 61.4972 24.1733 61.4972 25.054V32H58.9261V25.4517C58.9261 24.7178 58.7367 24.1473 58.358 23.7401C57.9839 23.3281 57.4583 23.1222 56.7812 23.1222C56.3267 23.1222 55.9195 23.2216 55.5597 23.4205C55.2045 23.6146 54.9252 23.8963 54.7216 24.2656C54.5227 24.6349 54.4233 25.0824 54.4233 25.608ZM68.8764 32.2131C67.8111 32.2131 66.8878 31.9787 66.1065 31.5099C65.3253 31.0412 64.7192 30.3854 64.2884 29.5426C63.8622 28.6998 63.6491 27.715 63.6491 26.5881C63.6491 25.4612 63.8622 24.474 64.2884 23.6264C64.7192 22.7789 65.3253 22.1207 66.1065 21.652C66.8878 21.1832 67.8111 20.9489 68.8764 20.9489C69.9418 20.9489 70.8651 21.1832 71.6463 21.652C72.4276 22.1207 73.0313 22.7789 73.4574 23.6264C73.8883 24.474 74.1037 25.4612 74.1037 26.5881C74.1037 27.715 73.8883 28.6998 73.4574 29.5426C73.0313 30.3854 72.4276 31.0412 71.6463 31.5099C70.8651 31.9787 69.9418 32.2131 68.8764 32.2131ZM68.8906 30.1534C69.4683 30.1534 69.9512 29.9948 70.3395 29.6776C70.7277 29.3556 71.0166 28.9247 71.206 28.3849C71.4001 27.8452 71.4972 27.2438 71.4972 26.581C71.4972 25.9134 71.4001 25.3097 71.206 24.7699C71.0166 24.2254 70.7277 23.7921 70.3395 23.4702C69.9512 23.1482 69.4683 22.9872 68.8906 22.9872C68.2988 22.9872 67.8063 23.1482 67.4134 23.4702C67.0251 23.7921 66.7339 24.2254 66.5398 24.7699C66.3504 25.3097 66.2557 25.9134 66.2557 26.581C66.2557 27.2438 66.3504 27.8452 66.5398 28.3849C66.7339 28.9247 67.0251 29.3556 67.4134 29.6776C67.8063 29.9948 68.2988 30.1534 68.8906 30.1534ZM81.0444 32.2131C79.979 32.2131 79.0558 31.9787 78.2745 31.5099C77.4933 31.0412 76.8872 30.3854 76.4563 29.5426C76.0302 28.6998 75.8171 27.715 75.8171 26.5881C75.8171 25.4612 76.0302 24.474 76.4563 23.6264C76.8872 22.7789 77.4933 22.1207 78.2745 21.652C79.0558 21.1832 79.979 20.9489 81.0444 20.9489C82.1097 20.9489 83.033 21.1832 83.8143 21.652C84.5955 22.1207 85.1992 22.7789 85.6254 23.6264C86.0562 24.474 86.2717 25.4612 86.2717 26.5881C86.2717 27.715 86.0562 28.6998 85.6254 29.5426C85.1992 30.3854 84.5955 31.0412 83.8143 31.5099C83.033 31.9787 82.1097 32.2131 81.0444 32.2131ZM81.0586 30.1534C81.6362 30.1534 82.1192 29.9948 82.5075 29.6776C82.8957 29.3556 83.1845 28.9247 83.3739 28.3849C83.5681 27.8452 83.6651 27.2438 83.6651 26.581C83.6651 25.9134 83.5681 25.3097 83.3739 24.7699C83.1845 24.2254 82.8957 23.7921 82.5075 23.4702C82.1192 23.1482 81.6362 22.9872 81.0586 22.9872C80.4667 22.9872 79.9743 23.1482 79.5813 23.4702C79.1931 23.7921 78.9019 24.2254 78.7077 24.7699C78.5183 25.3097 78.4237 25.9134 78.4237 26.581C78.4237 27.2438 78.5183 27.8452 78.7077 28.3849C78.9019 28.9247 79.1931 29.3556 79.5813 29.6776C79.9743 29.9948 80.4667 30.1534 81.0586 30.1534ZM91.0249 17.4545V32H88.4538V17.4545H91.0249Z" fill="url(#paint1_linear_8_16)"/>
<path d="M101.687 21.4531C101.621 20.8329 101.342 20.3499 100.849 20.0043C100.361 19.6586 99.7269 19.4858 98.9457 19.4858C98.3964 19.4858 97.9253 19.5687 97.5323 19.7344C97.1393 19.9001 96.8387 20.125 96.6303 20.4091C96.422 20.6932 96.3155 21.0175 96.3107 21.3821C96.3107 21.6851 96.3794 21.9479 96.5167 22.1705C96.6587 22.393 96.8505 22.5824 97.092 22.7386C97.3335 22.8902 97.601 23.018 97.8945 23.1222C98.1881 23.2263 98.484 23.3139 98.7823 23.3849L100.146 23.7259C100.695 23.8537 101.223 24.0265 101.73 24.2443C102.241 24.4621 102.698 24.7367 103.1 25.0682C103.508 25.3996 103.83 25.7997 104.066 26.2685C104.303 26.7372 104.422 27.2865 104.422 27.9162C104.422 28.7685 104.204 29.5189 103.768 30.1676C103.333 30.8116 102.703 31.3158 101.879 31.6804C101.06 32.0402 100.068 32.2202 98.9031 32.2202C97.7714 32.2202 96.7889 32.045 95.9556 31.6946C95.127 31.3442 94.4783 30.8329 94.0096 30.1605C93.5456 29.4882 93.2946 28.669 93.2567 27.7031H95.8491C95.887 28.2098 96.0432 28.6312 96.3178 28.9673C96.5924 29.3035 96.9499 29.5545 97.3903 29.7202C97.8353 29.8859 98.3325 29.9688 98.8817 29.9688C99.4547 29.9688 99.9566 29.8835 100.387 29.7131C100.823 29.5379 101.164 29.2964 101.41 28.9886C101.656 28.6761 101.782 28.3116 101.787 27.8949C101.782 27.5161 101.671 27.2036 101.453 26.9574C101.235 26.7064 100.93 26.4981 100.537 26.3324C100.148 26.1619 99.6938 26.0104 99.1729 25.8778L97.5181 25.4517C96.3202 25.1439 95.3732 24.6776 94.6772 24.0526C93.9859 23.4228 93.6403 22.5871 93.6403 21.5455C93.6403 20.6884 93.8723 19.938 94.3363 19.294C94.805 18.6501 95.4419 18.1506 96.2468 17.7955C97.0517 17.4356 97.9632 17.2557 98.9812 17.2557C100.013 17.2557 100.918 17.4356 101.694 17.7955C102.475 18.1506 103.089 18.6454 103.534 19.2798C103.979 19.9096 104.208 20.634 104.223 21.4531H101.687ZM112.104 21.0909V23.0795H105.833V21.0909H112.104ZM107.381 18.4773H109.952V28.7188C109.952 29.0644 110.004 29.3295 110.109 29.5142C110.218 29.6941 110.36 29.8172 110.535 29.8835C110.71 29.9498 110.904 29.983 111.117 29.983C111.278 29.983 111.425 29.9711 111.558 29.9474C111.695 29.9238 111.799 29.9025 111.87 29.8835L112.303 31.8935C112.166 31.9408 111.969 31.9929 111.714 32.0497C111.463 32.1065 111.155 32.1397 110.79 32.1491C110.147 32.1681 109.567 32.071 109.05 31.858C108.534 31.6402 108.125 31.304 107.822 30.8494C107.523 30.3949 107.377 29.8267 107.381 29.1449V18.4773ZM117.394 32.2202C116.703 32.2202 116.08 32.0971 115.526 31.8509C114.977 31.5999 114.541 31.2306 114.219 30.7429C113.902 30.2552 113.743 29.6539 113.743 28.9389C113.743 28.3234 113.857 27.8144 114.084 27.4119C114.311 27.0095 114.622 26.6875 115.015 26.446C115.408 26.2045 115.85 26.0223 116.343 25.8991C116.84 25.7713 117.354 25.679 117.884 25.6222C118.523 25.5559 119.042 25.4967 119.439 25.4446C119.837 25.3878 120.126 25.3026 120.306 25.1889C120.49 25.0705 120.583 24.8883 120.583 24.642V24.5994C120.583 24.0644 120.424 23.6501 120.107 23.3565C119.79 23.063 119.333 22.9162 118.736 22.9162C118.106 22.9162 117.607 23.0535 117.238 23.3281C116.873 23.6027 116.627 23.9271 116.499 24.3011L114.098 23.9602C114.288 23.2973 114.6 22.7434 115.036 22.2983C115.471 21.8485 116.004 21.5123 116.634 21.2898C117.264 21.0625 117.96 20.9489 118.722 20.9489C119.248 20.9489 119.771 21.0104 120.292 21.1335C120.812 21.2566 121.288 21.4602 121.719 21.7443C122.15 22.0237 122.496 22.4048 122.756 22.8878C123.021 23.3707 123.154 23.9744 123.154 24.6989V32H120.682V30.5014H120.597C120.441 30.8045 120.221 31.0885 119.936 31.3537C119.657 31.6141 119.304 31.8248 118.878 31.9858C118.457 32.142 117.962 32.2202 117.394 32.2202ZM118.061 30.331C118.578 30.331 119.025 30.2292 119.404 30.0256C119.783 29.8172 120.074 29.5426 120.277 29.2017C120.486 28.8608 120.59 28.4891 120.59 28.0866V26.8011C120.509 26.8674 120.372 26.929 120.178 26.9858C119.989 27.0426 119.775 27.0923 119.539 27.1349C119.302 27.1776 119.068 27.2154 118.836 27.2486C118.604 27.2817 118.402 27.3101 118.232 27.3338C117.848 27.3859 117.505 27.4711 117.202 27.5895C116.899 27.7079 116.66 27.8736 116.485 28.0866C116.31 28.295 116.222 28.5649 116.222 28.8963C116.222 29.3698 116.395 29.7273 116.74 29.9688C117.086 30.2102 117.526 30.331 118.061 30.331ZM131.186 21.0909V23.0795H124.915V21.0909H131.186ZM126.463 18.4773H129.034V28.7188C129.034 29.0644 129.087 29.3295 129.191 29.5142C129.3 29.6941 129.442 29.8172 129.617 29.8835C129.792 29.9498 129.986 29.983 130.199 29.983C130.36 29.983 130.507 29.9711 130.64 29.9474C130.777 29.9238 130.881 29.9025 130.952 29.8835L131.385 31.8935C131.248 31.9408 131.051 31.9929 130.796 32.0497C130.545 32.1065 130.237 32.1397 129.873 32.1491C129.229 32.1681 128.649 32.071 128.132 31.858C127.616 31.6402 127.207 31.304 126.904 30.8494C126.605 30.3949 126.459 29.8267 126.463 29.1449V18.4773Z" fill="url(#paint2_linear_8_16)"/>
<defs>
<linearGradient id="paint0_linear_8_16" x1="8" y1="20.5" x2="8" y2="40" gradientUnits="userSpaceOnUse">
<stop stop-color="#3D24D9"/>
<stop offset="1" stop-color="#D524D9"/>
</linearGradient>
<linearGradient id="paint1_linear_8_16" x1="28.7672" y1="13" x2="119.625" y2="13" gradientUnits="userSpaceOnUse">
<stop stop-color="#3D24D9"/>
<stop offset="0.604539" stop-color="#D524D9"/>
</linearGradient>
<linearGradient id="paint2_linear_8_16" x1="96.5646" y1="15.5" x2="135.787" y2="13.3718" gradientUnits="userSpaceOnUse">
<stop stop-color="#D524D9"/>
<stop offset="0.985566" stop-color="#3D24D9"/>
</linearGradient>
</defs>
</svg>
