<svg width="18" height="17" viewBox="0 0 18 17" fill="none" xmlns="http://www.w3.org/2000/svg">
<path d="M6.10714 0.5C5.51114 0.502949 4.94021 0.798895 4.51877 1.32336C4.09733 1.84782 3.85951 2.5583 3.85714 3.3C3.85714 4.8376 4.87157 6.1 6.10714 6.1C7.34271 6.1 8.35714 4.8376 8.35714 3.3C8.35714 1.7624 7.34271 0.5 6.10714 0.5ZM11.8929 0.5C11.2968 0.502949 10.7259 0.798895 10.3045 1.32336C9.88304 1.84782 9.64523 2.5583 9.64286 3.3C9.64286 4.8376 10.6573 6.1 11.8929 6.1C13.1284 6.1 14.1429 4.8376 14.1429 3.3C14.1429 1.7624 13.1284 0.5 11.8929 0.5ZM6.10714 2.1C6.64714 2.1 7.07143 2.628 7.07143 3.3C7.07143 3.972 6.64714 4.5 6.10714 4.5C5.56714 4.5 5.14286 3.972 5.14286 3.3C5.14286 2.628 5.56714 2.1 6.10714 2.1ZM11.8929 2.1C12.4329 2.1 12.8571 2.628 12.8571 3.3C12.8571 3.972 12.4329 4.5 11.8929 4.5C11.3529 4.5 10.9286 3.972 10.9286 3.3C10.9286 2.628 11.3529 2.1 11.8929 2.1ZM3.21429 5.3C1.8 5.3 0.642857 6.74 0.642857 8.5C0.642857 9.3904 0.9495 10.1936 1.4265 10.7752C0.988922 11.1427 0.630189 11.6377 0.381556 12.2172C0.132923 12.7967 0.00193354 13.4431 0 14.1H1.28571C1.28571 12.7656 2.142 11.7 3.21429 11.7C4.28657 11.7 5.14286 12.7656 5.14286 14.1H6.42857C6.42664 13.4431 6.29565 12.7967 6.04701 12.2172C5.79838 11.6377 5.43965 11.1427 5.00207 10.7752C5.47907 10.1936 5.78571 9.3912 5.78571 8.5C5.78571 6.74 4.62857 5.3 3.21429 5.3ZM6.42857 14.1C6.02679 14.7688 5.78571 15.6096 5.78571 16.5H7.07143C7.07143 15.1656 7.92771 14.1 9 14.1C10.0723 14.1 10.9286 15.1656 10.9286 16.5H12.2143C12.2132 15.6347 11.9877 14.793 11.5714 14.1C11.3529 13.7376 11.0893 13.428 10.7878 13.1752C11.2648 12.5936 11.5714 11.7912 11.5714 10.9C11.5714 9.14 10.4143 7.7 9 7.7C7.58571 7.7 6.42857 9.14 6.42857 10.9C6.42857 11.7904 6.73521 12.5936 7.21221 13.1752C6.91128 13.4268 6.64639 13.7394 6.42857 14.1V14.1ZM11.5714 14.1H12.8571C12.8571 12.7656 13.7134 11.7 14.7857 11.7C15.858 11.7 16.7143 12.7656 16.7143 14.1H18C17.9981 13.4431 17.8671 12.7967 17.6184 12.2172C17.3698 11.6377 17.0111 11.1427 16.5735 10.7752C17.0505 10.1936 17.3571 9.3912 17.3571 8.5C17.3571 6.74 16.2 5.3 14.7857 5.3C13.3714 5.3 12.2143 6.74 12.2143 8.5C12.2143 9.3904 12.5209 10.1936 12.9979 10.7752C12.5604 11.1427 12.2016 11.6377 11.953 12.2172C11.7044 12.7967 11.5734 13.4431 11.5714 14.1V14.1ZM3.21429 6.9C3.93236 6.9 4.5 7.6064 4.5 8.5C4.5 9.3936 3.93236 10.1 3.21429 10.1C2.49621 10.1 1.92857 9.3936 1.92857 8.5C1.92857 7.6064 2.49621 6.9 3.21429 6.9ZM14.7857 6.9C15.5038 6.9 16.0714 7.6064 16.0714 8.5C16.0714 9.3936 15.5038 10.1 14.7857 10.1C14.0676 10.1 13.5 9.3936 13.5 8.5C13.5 7.6064 14.0676 6.9 14.7857 6.9ZM9 9.3C9.71807 9.3 10.2857 10.0064 10.2857 10.9C10.2857 11.7936 9.71807 12.5 9 12.5C8.28193 12.5 7.71429 11.7936 7.71429 10.9C7.71429 10.0064 8.28193 9.3 9 9.3Z" fill="black"/>
</svg>
